<?xml version="1.0" standalone="no"?>
<!DOCTYPE svg PUBLIC "-//W3C//DTD SVG 1.1//EN" "http://www.w3.org/Graphics/SVG/1.1/DTD/svg11.dtd" >
<svg xmlns="http://www.w3.org/2000/svg">
<metadata>Generated by IcoMoon</metadata>
<defs>
<font id="icomoon" horiz-adv-x="1024">
<font-face units-per-em="1024" ascent="960" descent="-64" />
<missing-glyph horiz-adv-x="1024" />
<glyph unicode="&#x20;" horiz-adv-x="512" d="" />
<glyph unicode="&#xe900;" glyph-name="open-mail" d="M881.859 668.049v291.951h-735.531v-289.155l-112.61-68.879v-665.966h956.564v665.984l-108.422 66.065zM146.327 531.989l-64.387 57.17 64.387 39.383v-96.553zM383.523 273.087l-313.725-278.87v557.489l313.725-278.619zM512.009 339.007l412.804-366.927h-825.608l412.804 366.927zM639.611 273.864l314.591 277.986v-557.633l-314.591 279.647zM881.859 625.798l60.11-36.622-60.11-53.13v89.753zM182.408 923.919h663.37v-419.751l-233.337-206.167-100.432 89.282-101.316-90.059-228.285 202.722v423.972zM230.775 863.789h561.548v-36.081h-561.548v36.081zM230.775 791.627h561.548v-36.081h-561.548v36.081zM230.775 719.466h561.548v-36.081h-561.548v36.081zM230.775 647.302h561.548v-36.081h-561.548v36.081zM230.775 575.141h561.548v-36.081h-561.548v36.081z" />
<glyph unicode="&#xe901;" glyph-name="icn-package" d="M354.201 206.544l-39.878 64.702-84.203-15.127 110.74 196.402h-215.94v-516.52h367.943v516.52zM959.809 699.006h-244.335c14.289 7.363 27.047 15.055 38.347 23.22 43.45 31.13 66.524 70.57 66.451 109.719 0 32.114-15.2 78.116-37.29 97.289-22.126 19.392-51.47 30.765-82.782 30.765-33.463 0-64.556-11.482-91.202-29.344-40.060-26.828-71.409-84.932-93.754-129.258-1.13-2.224-2.26-4.374-3.354-6.525-8.165 17.096-17.716 51.324-28.542 66.925-18.955 27.047-41.737 50.959-68.493 68.857-26.573 17.861-57.63 29.344-91.056 29.344-33.317-0.109-63.827-14.070-86.646-35.613-22.709-21.324-38.602-69.331-38.748-103.632-0.146-20.012 5.686-40.972 17.752-60.036 15.164-23.876 39.186-44.69 72.357-61.713h-224.943l0.51-205.405h422.402v205.405h51.47v-205.405h422.475l-0.62 205.405zM303.096 763.234c-16.95 10.717-27.375 21.47-33.499 31.13-5.942 9.587-8.019 26.427-8.019 34.702-0.146 13.815 6.744 38.056 18.991 49.428 11.956 11.409 28.214 18.445 42.794 18.445h0.437c18.773-0.146 37.363-6.415 56.099-18.773 27.886-18.408 54.167-68.456 72.429-105.127 9.55-18.663 16.841-38.165 21.762-57.229-84.604 8.748-139.282 27.412-170.995 47.424zM592.267 807.887c15.237 21.835 33.207 57.849 51.834 70.279 18.517 12.357 37.326 18.627 56.099 18.773h0.182c15.638 0 30.692-6.124 40.935-15.2 10.279-9.222 15.784-26.099 15.784-37.983-0.219-14.034-7.473-46.33-40.243-70.279-31.093-22.673-85.078-45.893-168.079-62.15 7.837 32.916 23.183 67.764 43.487 96.56zM794.318 256.957l-84.167 14.289-39.732-65.467-136.876 243.424v-513.203h366.084v516.52h-215.94z" />
<glyph unicode="&#xe902;" glyph-name="bag" d="M886.418 75.52l-54.592 599.36c-1.472 16.512-15.296 29.12-31.872 29.12h-96v64c0 51.456-19.968 99.712-56.128 135.872-35.584 35.648-85.12 56.128-135.872 56.128-105.856 0-192-86.144-192-192v-64h-96c-16.576 0-30.4-12.608-31.872-29.12l-54.464-599.296c-3.264-35.776 8.768-71.424 32.96-97.92s58.624-41.664 94.528-41.664h493.76c35.84 0 70.272 15.168 94.464 41.6 24.256 26.496 36.224 62.208 33.088 97.92zM639.954 704h-256v64c0 70.592 57.408 128 128 128 33.92 0 66.944-13.568 90.624-37.312 24.128-24.128 37.376-56.32 37.376-90.688v-64z" />
<glyph unicode="&#xe903;" glyph-name="office-big-chair" d="M301.416 348.15c0.678-5.133 3.442-9.763 7.638-12.795 3.236-2.339 7.098-3.566 11.028-3.566 1.175 0 2.353 0.11 3.524 0.331 64.085 12.208 125.692 18.142 188.337 18.142s124.29-5.935 188.452-18.142c5.133-0.98 10.452 0.224 14.662 3.318 4.216 3.095 6.952 7.804 7.56 12.994 24.144 206.715 72.627 549.69 73.115 553.132 1.323 9.357-4.496 18.246-13.6 20.778-89.859 24.991-180.732 37.657-270.101 37.657-89.367 0-180.264-12.666-270.168-37.654-9.044-2.511-14.855-11.302-13.625-20.61l73.177-553.586zM913.536 585.9h-78.915c-17.328 0-31.443-11.555-34.332-28.095-4.831-27.658 20.055-38.266 36.523-45.29 1.175-0.5 2.404-1.019 3.689-1.553 3.279-118.902-48.787-180.675-82.694-208.136-8.431 7.282-19.386 11.722-31.374 11.722h-428.869c-11.967 0-22.901-4.419-31.327-11.679-33.768 27.464-85.986 89.374-82.735 208.096 1.282 0.532 2.506 1.051 3.678 1.548 16.468 7.024 41.351 17.632 36.523 45.29-2.89 16.54-17.006 28.095-34.332 28.095h-78.913c-34.259 0-62.131-27.867-62.131-62.122v-15.787c0-10.887 5.306-21.096 14.212-27.353 5.706-4.011 12.43-6.079 19.223-6.079 3.812 0 7.643 0.653 11.328 1.981 0.167 0.057 10.016 3.609 23.711 8.667 3.382-94.121 37.311-156.671 67.53-194.081 24.112-29.852 48.971-48.206 65.151-58.187v-18.134c0-26.519 21.571-48.093 48.089-48.093h171.387v-66.009c-63.262-2.615-126.656-11.006-190.768-25.172-0.278-0.060-0.552-0.124-0.827-0.189-38.36-9.27-61.257-38.37-61.257-77.847 0-23.771 19.27-43.045 43.045-43.045 22.12 0 40.339 16.68 42.77 38.146 56.106 12.107 111.631 19.389 167.037 21.88v-35.428c0-23.771 19.27-43.045 43.045-43.045 23.771 0 43.045 19.27 43.045 43.045v35.428c55.398-2.491 110.92-9.773 167.035-21.877 2.431-21.465 20.651-38.142 42.767-38.142 23.771 0 43.045 19.274 43.045 43.045 0 39.941-24.534 70.539-62.571 78.143-63.956 14.1-127.185 22.451-190.276 25.064v66.006h171.391c26.513 0 48.086 21.573 48.086 48.093v18.134c16.183 9.979 41.039 28.336 65.153 58.187 30.22 37.409 64.149 99.96 67.532 194.081 13.69-5.061 23.535-8.61 23.703-8.667 3.683-1.325 7.513-1.981 11.328-1.981 6.79 0 13.518 2.070 19.223 6.079 8.906 6.258 14.212 16.466 14.212 27.353v15.787c-0.007 34.254-27.879 62.121-62.138 62.121z" />
<glyph unicode="&#xe904;" glyph-name="settings-work-tool" d="M1020.781 504.851c-1.619 14.394-18.402 25.211-32.915 25.211-46.92 0-88.556 27.55-106.018 70.158-17.839 43.64-6.336 94.534 28.632 126.611 11.007 10.062 12.344 26.906 3.113 38.607-24.015 30.495-51.31 58.042-81.112 81.915-11.67 9.365-28.792 8.062-38.912-3.143-30.518-33.799-85.337-46.36-127.697-28.686-44.082 18.543-71.88 63.212-69.159 111.161 0.895 15.061-10.112 28.156-25.127 29.905-38.245 4.423-76.825 4.561-115.185 0.305-14.844-1.638-25.851-14.425-25.352-29.295 1.669-47.477-26.464-91.364-70.108-109.241-41.853-17.096-96.287-4.641-126.744 28.857-10.066 11.034-26.91 12.39-38.637 3.25-30.686-24.076-58.594-51.645-82.83-81.889-9.453-11.758-8.062-28.8 3.056-38.916 35.635-32.271 47.141-83.607 28.628-127.75-17.675-42.085-61.376-69.209-111.405-69.209-16.234 0.522-27.798-10.375-29.573-25.135-4.503-38.466-4.557-77.66-0.221-116.438 1.608-14.455 18.902-25.177 33.574-25.177 44.585 1.139 87.39-26.464 105.347-70.162 17.899-43.64 6.393-94.504-28.628-126.607-10.954-10.062-12.344-26.88-3.113-38.58 23.79-30.301 51.089-57.874 80.997-81.946 11.731-9.453 28.8-8.119 38.969 3.086 30.633 33.883 85.447 46.421 127.639 28.712 44.192-18.486 71.99-63.151 69.27-111.127-0.888-15.069 10.173-28.187 25.127-29.909 19.564-2.282 39.247-3.421 58.983-3.421 18.734 0 37.472 1.029 56.205 3.113 14.848 1.638 25.847 14.425 25.348 29.322-1.718 47.45 26.464 91.338 70.051 109.184 42.135 17.21 96.34 4.614 126.801-28.849 10.123-11.011 26.849-12.341 38.641-3.231 30.629 24.018 58.48 51.565 82.83 81.893 9.449 11.731 8.115 28.8-3.059 38.912-35.635 32.271-47.199 83.615-28.686 127.727 17.404 41.525 59.482 69.407 104.741 69.407l6.332-0.164c14.68-1.193 28.187 10.116 29.966 25.1 4.511 38.5 4.564 77.66 0.229 116.438zM512.81 276.136c-94.176 0-170.78 76.604-170.78 170.78 0 94.172 76.604 170.78 170.78 170.78 94.172 0 170.777-76.608 170.777-170.78 0-94.176-76.604-170.78-170.777-170.78z" />
<glyph unicode="&#xe905;" glyph-name="file-fill" d="M893.346 706.663l-208.002 208.009c-22.232 22.223-51.574 36.674-88.013 43.334v-339.34h339.345c-6.667 36.455-21.121 65.783-43.329 87.997zM576.003 533.338c-17.786 0-32.899 6.218-45.34 18.664-12.446 12.439-18.662 27.551-18.662 45.333v362.665h-362.667c-17.774 0-32.887-6.218-45.33-18.664-12.446-12.439-18.666-27.551-18.666-45.333v-896.006c0-17.786 6.221-32.899 18.666-45.34 12.446-12.434 27.556-18.659 45.333-18.659h725.346c17.772 0 32.875 6.225 45.316 18.659 12.441 12.451 18.666 27.554 18.666 45.34v533.341h-362.663z" />
<glyph unicode="&#xe906;" glyph-name="file" d="M768 533.333h-426.667c-9.421 0-17.067-7.629-17.067-17.067s7.646-17.067 17.067-17.067h426.667c9.421 0 17.067 7.629 17.067 17.067s-7.646 17.067-17.067 17.067zM341.333 635.733h170.667c9.421 0 17.067 7.629 17.067 17.067s-7.646 17.067-17.067 17.067h-170.667c-9.421 0-17.067-7.629-17.067-17.067s7.646-17.067 17.067-17.067zM768 396.8h-426.667c-9.421 0-17.067-7.629-17.067-17.067s7.646-17.067 17.067-17.067h426.667c9.421 0 17.067 7.629 17.067 17.067s-7.646 17.067-17.067 17.067zM768 260.267h-426.667c-9.421 0-17.067-7.629-17.067-17.067s7.646-17.067 17.067-17.067h426.667c9.421 0 17.067 7.629 17.067 17.067s-7.646 17.067-17.067 17.067zM768 123.733h-426.667c-9.421 0-17.067-7.629-17.067-17.067s7.646-17.067 17.067-17.067h426.667c9.421 0 17.067 7.629 17.067 17.067s-7.646 17.067-17.067 17.067zM836.267 711.066v248.934h-733.867v-938.667h85.333v-85.333h733.867v689.732l-85.333 85.333zM682.667 816.401l180.668-180.668h-180.668v180.668zM136.533 55.467v870.4h665.6v-180.668l-129.468 129.468h-484.932v-819.2h-51.2zM221.867-29.867v870.4h426.667v-238.933h238.933v-631.467h-665.6z" />
<glyph unicode="&#xe907;" glyph-name="invoice" d="M973.572 960h-923.146c-24.858 0-45.009-20.151-45.009-45.009s20.151-45.009 45.009-45.009h49.323v-923.97c0-2.214 1.373-4.197 3.443-4.978 2.073-0.781 4.411-0.198 5.874 1.465l41.289 46.978c2.536 2.885 6.155 4.593 9.994 4.717s7.559-1.348 10.278-4.064l50.057-50.057c5.428-5.428 14.232-5.428 19.66 0l50.712 50.712c5.428 5.428 14.232 5.428 19.66 0l50.712-50.709c5.428-5.428 14.23-5.428 19.66 0l50.712 50.709c5.428 5.428 14.232 5.428 19.66 0l50.712-50.712c5.428-5.428 14.232-5.428 19.66 0l50.712 50.709c5.428 5.428 14.232 5.428 19.66 0l50.712-50.712c5.43-5.428 14.232-5.428 19.66 0l50.712 50.712c5.428 5.428 14.232 5.428 19.66 0l50.712-50.709c5.428-5.428 14.23-5.428 19.66 0l49.933 49.933c2.737 2.737 6.493 4.208 10.359 4.062 3.869-0.146 7.499-1.902 10.019-4.838l41.267-48.081c1.449-1.69 3.799-2.298 5.885-1.526 2.086 0.774 3.472 2.764 3.472 4.989v925.37h49.325c24.858 0 45.009 20.151 45.009 45.009s-20.155 45.009-45.014 45.009zM233.813 780.997h374.873c18.643 0 33.757-15.114 33.757-33.757s-15.114-33.757-33.757-33.757h-374.873c-18.643 0-33.757 15.114-33.757 33.757s15.114 33.757 33.757 33.757zM779.322 323.098h-548.093c-18.643 0-33.757 15.114-33.757 33.757s15.114 33.757 33.757 33.757h548.093c18.643 0 33.757-15.114 33.757-33.757s-15.114-33.757-33.757-33.757zM781.906 511.827h-548.093c-18.643 0-33.757 15.114-33.757 33.757s15.114 33.757 33.757 33.757h548.093c18.643 0 33.757-15.114 33.757-33.757s-15.114-33.757-33.757-33.757z" />
<glyph unicode="&#xe908;" glyph-name="table" d="M1023.772 627.486c-0.296 5.322-2.492 10.363-6.188 14.203v0.111l-155.843 155.843c-4.183 4.208-9.872 6.573-15.806 6.568h-670.502c-5.973-0.006-11.692-2.413-15.873-6.679l-153.238-155.843c-1.737-1.839-3.145-3.961-4.164-6.278-0.311-0.668-0.468-1.359-0.712-2.048-0.662-1.904-1.058-3.888-1.179-5.9 0-0.468-0.267-0.868-0.267-1.359v-66.79c0-0.311 0.157-0.578 0.177-0.868 0.050-2.64 0.578-5.251 1.559-7.704 0-0.157 0.177-0.29 0.244-0.445 1.012-2.225 2.39-4.264 4.074-6.034 0.53-0.526 1.087-1.025 1.67-1.492 1.415-1.25 2.987-2.315 4.675-3.162 0.678-0.365 1.378-0.691 2.093-0.979 2.452-0.985 5.061-1.522 7.704-1.58h66.79v-423.001c0-12.296 9.968-22.264 22.264-22.264h22.264c12.296 0 22.264 9.968 22.264 22.264v423.003h66.79v-244.894c0-12.296 9.968-22.264 22.264-22.264h22.264c12.296 0 22.264 9.968 22.264 22.264v244.894h445.263v-244.894c0-12.296 9.968-22.264 22.264-22.264h22.264c12.296 0 22.264 9.968 22.264 22.264v244.894h66.79v-422.999c0-12.296 9.968-22.264 22.264-22.264h22.264c12.296 0 22.264 9.968 22.264 22.264v422.999h66.79c2.665 0.052 5.297 0.586 7.771 1.58 0.722 0.294 1.43 0.628 2.114 1.002 1.678 0.843 3.243 1.897 4.652 3.139 0.582 0.474 1.14 0.981 1.67 1.513 1.651 1.741 3.006 3.742 4.007 5.921 0 0.2 0.223 0.334 0.311 0.534 0.975 2.461 1.494 5.078 1.536 7.725 0 0.29 0.157 0.511 0.157 0.801v66.833c0.038 0.493-0.209 0.893-0.23 1.384z" />
<glyph unicode="&#xe909;" glyph-name="clipboard" d="M653 311l-136.8-136.8c-8.2-8.2-18.8-12.2-29.4-12.2s-21.2 4-29.4 12.2l-86.4 86.4c-16.2 16.2-16.2 42.6 0 58.8s42.6 16.2 58.8 0l57-57 107.4 107.4c16.2 16.2 42.6 16.2 58.8 0s16.2-42.6 0-58.8zM855.4 788.6h-61.4l17.8-154.6c3-26.4-14.2-52.8-45-58.4h-509.6c-30.8 5.6-48 32-45 58.4l17.8 154.6h-61.4c-23 0-41.6-18.6-41.6-41.6v-747.4c0-23 18.6-41.6 41.6-41.6h686.6c23 0 41.6 18.6 41.6 41.6v747.4c0.2 23-18.6 41.6-41.4 41.6zM685.8 810.8h-121.4v74.8c0 29-23.4 52.4-52.4 52.4s-52.4-23.4-52.4-52.4v-74.8h-121.4l-15-130.4h377.8l-15.2 130.4zM855.4 788.6h-61.4l17.8-154.6c3-26.4-14.2-52.8-45-58.4h-509.6c-30.8 5.6-48 32-45 58.4l17.8 154.6h-61.4c-23 0-41.6-18.6-41.6-41.6v-747.4c0-23 18.6-41.6 41.6-41.6h686.6c23 0 41.6 18.6 41.6 41.6v747.4c0.2 23-18.6 41.6-41.4 41.6zM653 311l-136.8-136.8c-24.6-22-49-9.8-58.8 0l-86.4 86.4c-16.2 16.2-16.2 42.6 0 58.8s42.6 16.2 58.8 0l57-57 107.4 107.4c16.2 16.2 42.6 16.2 58.8 0s16.2-42.6 0-58.8z" />
<glyph unicode="&#xe90a;" glyph-name="add-booking2" d="M1022.758 777.8h-135.013v-135.013h-45.042v135.013h-134.9v45.042h135.013v134.9h45.042v-135.013h134.9v-44.929zM677.323 686.474h-37.479v74.844h-74.844v-74.844h-374.447v74.844h-74.844v-74.844h-37.479c-41.204 0-74.844-33.753-74.844-74.957v-599.092c0-41.204 33.64-74.844 74.844-74.844h599.092c41.204 0 74.844 33.64 74.844 74.844v599.092c0 41.204-33.64 74.957-74.844 74.957zM677.323 12.538h-599.092v486.657h599.092v-486.657z" />
<glyph unicode="&#xe90b;" glyph-name="coin-of-dollar" d="M512 960c-282.75 0-512-229.25-512-512s229.25-512 512-512 512 229.25 512 512-229.25 512-512 512zM512 0c-247 0-448 201-448 448s201 448 448 448 448-201 448-448-201-448-448-448zM671.124 428.312c12.19-20.626 18.312-44.688 18.312-72.25 0-42.312-12.624-77.562-37.812-105.75-25.188-28.25-61.56-44.876-109.124-49.876v-72.436h-60.626v72.062c-79.312 8.124-128.376 54.25-147.312 138.25l93.75 24.438c8.688-52.812 37.438-79.188 86.25-79.188 22.812 0 39.688 5.624 50.438 16.938s16.124 24.938 16.124 40.938c0 16.562-5.376 29.126-16.124 37.626-10.75 8.56-34.688 19.376-71.75 32.5-33.312 11.56-59.376 22.938-78.126 34.31-18.75 11.25-34 27.062-45.688 47.376-11.688 20.376-17.562 44.126-17.562 71.126 0 35.438 10.5 67.376 31.376 95.75 20.876 28.312 53.75 45.626 98.626 51.938v55.936h60.626v-55.938c67.75-8.126 111.626-46.438 131.562-115l-83.5-34.25c-16.312 47-41.44 70.5-75.562 70.5-17.126 0-30.876-5.25-41.188-15.75-10.376-10.5-15.562-23.25-15.562-38.188 0-15.25 5-26.938 15-35.126 9.938-8.126 31.376-18.188 64.126-30.25 36-13.126 64.25-25.562 84.688-37.25 20.496-11.686 36.81-27.874 49.058-48.436z" />
<glyph unicode="&#xe90c;" glyph-name="credit-card" d="M917.334 789.334h-810.668c-58.794 0-106.666-47.872-106.666-106.668v-469.334c0-58.794 47.872-106.666 106.666-106.666h810.666c58.794 0 106.666 47.872 106.666 106.666v469.334c0.002 58.796-47.87 106.668-106.664 106.668zM981.334 213.334c0-35.286-28.714-64-64-64h-810.668c-35.286 0-64 28.714-64 64v469.332c0 35.286 28.714 64 64 64h810.666c35.286 0 64-28.714 64-64v-469.332zM1002.666 661.334h-981.332c-11.776 0-21.334-9.558-21.334-21.334v-128c0-11.776 9.558-21.334 21.334-21.334h981.334c11.776 0 21.334 9.558 21.334 21.334v128c-0.002 11.776-9.56 21.334-21.336 21.334zM981.334 533.334h-938.668v85.334h938.666v-85.334zM405.334 362.666h-256c-11.776 0-21.334-9.558-21.334-21.334s9.558-21.332 21.334-21.332h256c11.776 0 21.334 9.558 21.334 21.334s-9.558 21.332-21.334 21.332zM405.334 277.334h-256c-11.776 0-21.334-9.558-21.334-21.334s9.558-21.334 21.334-21.334h256c11.776 0 21.334 9.558 21.334 21.334-0.002 11.776-9.558 21.334-21.334 21.334zM832 405.334h-42.666c-35.286 0-64-28.714-64-64v-42.666c0-35.286 28.714-64 64-64h42.666c35.286 0 64 28.714 64 64v42.666c0 35.284-28.714 64-64 64zM853.334 298.666c0-11.776-9.558-21.334-21.334-21.334h-42.666c-11.776 0-21.334 9.558-21.334 21.334v42.666c0 11.776 9.558 21.334 21.334 21.334h42.666c11.776 0 21.334-9.558 21.334-21.334v-42.666z" />
<glyph unicode="&#xe90d;" glyph-name="earth-globe" d="M800.682-31.319h-7.092c-7.591 37.247-40.6 65.361-80.057 65.361h-141.616v34.299c53.823 1.848 108.225 13.153 160.832 34.942 4.004 1.658 7.185 4.839 8.843 8.843 1.66 4.004 1.66 8.504 0 12.508l-8.338 20.127c-3.453 8.338-13.013 12.299-21.349 8.843-8.338-3.453-12.299-13.013-8.843-21.349l1.965-4.75c-43.755-16.229-88.63-24.848-133.113-26.493v5.164c0 9.024-7.314 16.34-16.34 16.34s-16.34-7.316-16.34-16.34v-5.103c-162.658 6.432-314.928 105.282-381.202 265.277-88.702 214.148 8.963 459.795 217.897 555.671l1.967-4.75c3.453-8.338 13.007-12.299 21.349-8.843 8.338 3.453 12.299 13.013 8.843 21.349l-8.338 20.129c-3.453 8.34-13.011 12.299-21.349 8.843-235.85-97.693-348.251-369.054-250.558-604.908 71.479-172.569 235.902-279.047 411.393-285.496v-34.306h-141.616c-39.456 0-72.466-28.114-80.057-65.361h-7.092c-9.026 0-16.34-7.316-16.34-16.34s7.314-16.34 16.34-16.34h490.21c9.026 0 16.34 7.316 16.34 16.34s-7.314 16.34-16.34 16.34zM397.621 1.361h315.913c21.301 0 39.465-13.663 46.21-32.681h-408.334c6.747 19.020 24.909 32.681 46.21 32.681zM893.955 367.916c44.82 93.112 51.407 204.165 8.843 306.924-58.402 140.995-194.748 232.098-347.36 232.098-49.361 0-97.702-9.658-143.682-28.702-92.745-38.417-164.981-110.652-203.396-203.396-38.417-92.745-38.415-194.901 0.002-287.646 58.4-140.995 194.748-232.098 347.36-232.098 49.361 0 97.702 9.656 143.682 28.702 87.177 36.11 153.564 101.454 192.546 179.99 0.782 1.161 1.44 2.431 1.917 3.819 0.033 0.102 0.054 0.207 0.087 0.309zM869.519 392.897c-27.293 8.168-55.243 13.153-83.327 14.976-1.508 19.783-4.24 40.293-8.201 61.326-1.669 8.87-10.223 14.7-19.081 13.035-8.867-1.671-14.704-10.214-13.033-19.081 3.543-18.822 5.991-37.069 7.427-54.594-40.681-0.932-81.201-8.471-119.96-22.589l-56.418 136.204 135.686 56.202c6.841-17.658 12.959-35.533 18.229-53.324 2.567-8.652 11.652-13.595 20.31-11.026 8.652 2.562 13.586 11.656 11.026 20.308-5.593 18.876-12.094 37.833-19.367 56.548l135.679 56.2c30.785-85.493 25.354-176.123-8.972-254.186zM411.042 453.461l135.694 56.206 56.418-136.202c-37.415-17.434-71.418-40.779-100.859-68.91-34.811 41.008-66.157 92.005-91.253 148.906zM700.115 608.572l-135.694-56.206-56.418 136.202c37.415 17.434 71.418 40.779 100.859 68.91 34.814-41.008 66.159-92.005 91.253-148.906zM357.18 716.067c4.27 60.084 22.789 103.314 52.672 124.069l55.442-133.849c-35.245-12.676-72.063-19.399-109.016-20.157-0.081 10.212 0.209 20.208 0.902 29.938zM495.486 718.793l-55.442 133.849c35.816 6.458 79.471-11.018 124.977-50.485 7.368-6.39 14.643-13.253 21.807-20.53-26.67-25.593-57.459-46.875-91.342-62.834zM477.808 676.075l56.422-136.215-135.694-56.206c-22.489 57.973-36.382 116.193-40.768 169.804 40.711 0.926 81.255 8.49 120.040 22.617zM701.274 221.975l-55.411 133.773c35.223 12.667 72.017 19.391 108.946 20.155 0.584-72.915-18.465-129.258-53.535-153.928zM615.673 343.24l55.444-133.849c-35.809-6.456-79.471 11.018-124.977 50.485-7.368 6.39-14.643 13.253-21.805 20.53 26.665 25.595 57.455 46.875 91.338 62.834zM865.956 677.267l-135.646-56.187c-26.901 61.141-60.854 116.029-98.733 160.087 18.65 21.238 34.944 44.637 48.502 69.836 80.712-31.328 147.754-92.669 185.877-173.737zM648.541 861.459c-11.236-20.070-24.391-38.846-39.232-56.097-7.512 7.597-15.144 14.776-22.876 21.484-23.195 20.116-46.354 35.262-68.891 45.284 12.543 1.401 25.182 2.129 37.899 2.129 32.053-0.002 63.302-4.453 93.101-12.8zM341.31 799.213c-8.872-23.042-14.549-50.163-16.73-80.83-0.726-10.212-1.046-20.682-0.985-31.367-22.661 1.702-45.208 5.669-67.316 11.9 21.739 38.934 50.572 72.85 85.031 100.297zM238.553 662.334c0.95 2.296 1.935 4.571 2.93 6.839 27.338-8.194 55.341-13.194 83.473-15.020 4.37-57.936 19.175-120.753 43.385-183.005l-135.683-56.202c-29.049 80.536-27.090 167.758 5.896 247.388zM245.203 384.766l135.646 56.187c26.901-61.141 60.854-116.029 98.733-160.087-18.65-21.238-34.944-44.637-48.502-69.839-80.715 31.33-147.756 92.674-185.877 173.739zM462.618 200.574c11.236 20.070 24.391 38.846 39.23 56.097 7.512-7.597 15.144-14.776 22.876-21.484 23.208-20.129 46.38-35.258 68.932-45.278-12.556-1.403-25.208-2.133-37.938-2.133-32.053 0-63.302 4.451-93.101 12.798zM769.84 262.957c3.314 8.619 6.196 17.813 8.612 27.572 6.277 25.345 9.299 53.81 9.105 84.49 22.604-1.697 45.095-5.647 67.148-11.852-21.314-38.079-49.934-72.266-84.865-100.21z" />
<glyph unicode="&#xe90e;" glyph-name="note-1" d="M1024 754.258c0 15.486-6.030 30.044-16.98 40.992l-22.772 22.776c-10.95 10.95-25.51 16.98-40.996 16.98s-30.044-6.030-40.996-16.98l-107.306-107.306v114.354c0 11.264-9.134 20.398-20.398 20.398h-754.153c-11.266 0.002-20.398-9.134-20.398-20.398v-754.149c0-11.264 9.132-20.398 20.398-20.398h754.151c11.264 0 20.398 9.134 20.398 20.398l-0.008 430.253 212.080 212.082c10.95 10.95 16.98 25.512 16.98 40.998zM754.151 91.324h-713.355v713.349h713.353v-134.752l-373.455-373.455c-2.24-2.24-3.926-4.972-4.928-7.974l-37.96-113.878c-2.444-7.33-0.536-15.412 4.928-20.874 3.888-3.888 9.102-5.974 14.428-5.974 2.158 0 4.334 0.342 6.448 1.046l113.878 37.958c3.004 1.002 5.734 2.688 7.974 4.928l268.689 268.689v-369.063zM460.017 223.951l-70.608-23.534 23.536 70.608 433.127 433.127 47.072-47.072-433.127-433.129zM978.172 742.11l-56.18-56.182-47.070 47.072 56.182 56.182c3.246 3.246 7.558 5.032 12.148 5.032s8.902-1.786 12.148-5.030l22.774-22.776c0-0.002 0-0.002 0.002-0.002 3.244-3.246 5.030-7.558 5.030-12.146 0-4.592-1.788-8.906-5.034-12.15zM636.251 717.982h-19.448c-11.264 0-20.398-9.134-20.398-20.398s9.132-20.398 20.398-20.398h19.448c11.264 0 20.398 9.134 20.398 20.398 0.002 11.262-9.134 20.398-20.398 20.398zM528.207 717.982h-371.673c-11.266 0-20.398-9.134-20.398-20.398s9.132-20.398 20.398-20.398h371.675c11.264 0 20.398 9.134 20.398 20.398-0.002 11.262-9.136 20.398-20.4 20.398zM508.759 599.131h-352.225c-11.266 0-20.398-9.134-20.398-20.398s9.132-20.398 20.398-20.398h352.227c11.264 0 20.398 9.134 20.398 20.398s-9.136 20.398-20.4 20.398zM381.267 480.281h-224.732c-11.266 0-20.398-9.134-20.398-20.398s9.132-20.398 20.398-20.398h224.734c11.266 0 20.398 9.134 20.398 20.398s-9.134 20.398-20.4 20.398zM284.029 363.595h-127.494c-11.266 0-20.398-9.134-20.398-20.398s9.132-20.398 20.398-20.398h127.492c11.266 0 20.398 9.134 20.398 20.398s-9.13 20.398-20.396 20.398z" />
<glyph unicode="&#xe90f;" glyph-name="credit-note" d="M911.654 660.282v-43.714c0-24.142-19.571-43.714-43.714-43.714s-43.714 19.571-43.714 43.714v0 43.714h-87.428v-43.714c0-24.142-19.571-43.714-43.714-43.714s-43.714 19.571-43.714 43.714v0 43.714h-87.447v-43.714c0-24.142-19.571-43.714-43.714-43.714s-43.714 19.571-43.714 43.714v0 43.714h-87.408v-43.714c0-24.142-19.571-43.714-43.714-43.714s-43.714 19.571-43.714 43.714v0 43.714h-87.37v-43.714c0.006-0.271 0.009-0.589 0.009-0.909 0-24.142-19.571-43.714-43.714-43.714s-43.714 19.571-43.714 43.714c0 0.326 0.004 0.652 0.011 0.977l-0.001-0.048v43.694h-124.883v-599.399c0-68.69 56.192-124.883 124.883-124.883h774.234c68.69 0 124.883 56.192 124.883 124.883v599.399h-112.346zM374.629 179.527h-224.77v62.432h224.77v-62.432zM511.99 329.367h-362.131v62.432h362.131v-62.432zM855.828 171.317c-8.094-12.884-19.838-22.195-32.085-28.144-7.259-3.586-15.698-6.532-24.532-8.411l-0.715-0.127v-23.798h-62.432v23.296c-9.981 2.192-18.807 5.542-26.955 9.981l0.53-0.264c-15.668 8.486-27.987 21.452-35.447 37.171l-0.212 0.497c-4.612 9.906-7.303 21.504-7.303 33.731 0 0.134 0 0.268 0.001 0.403v-0.021h62.432c-0.002-0.112-0.004-0.244-0.004-0.377 0-2.801 0.606-5.461 1.694-7.856l-0.048 0.119c1.123-2.406 2.704-4.425 4.645-6.023l0.029-0.023c4.424-3.767 13.077-7.785 27.739-7.823 9.562-0.019 18.003 0.927 24.397 2.53 6.471 1.603 10.644 3.805 12.846 5.602 1.245 0.954 2.263 2.139 3.004 3.497l0.029 0.058c0.927 1.777 1.951 4.539 1.99 10.296 0 3.979-0.502 6.548-1.082 8.345-0.456 1.51-1.15 2.822-2.048 3.966l0.020-0.026c-1.642 2.144-5.196 5.061-12.15 8.074-4.567 1.97-10.186 3.91-15.961 5.468l-0.922 0.212c-8.731 2.434-18.776 4.675-29.323 7.456-14.043 3.805-29.149 8.171-43.965 17.791-9.252 6.016-16.876 13.745-22.594 22.798l-0.18 0.305c-7.070 11.416-10.644 25.421-10.566 39.599 0.013 16.115 4.682 31.136 12.734 43.795l-0.197-0.332c8.808 14.159 23.315 26.754 41.995 33.785 4.078 1.569 9.044 3.034 14.148 4.127l0.687 0.123v22.794h62.432v-23.914c8.152-1.932 15.936-4.443 23.141-7.958 16.864-8.113 30.83-21.384 38.595-37.822 5.216-10.875 7.688-22.794 7.649-34.596h-62.432c0.004 0.136 0.006 0.296 0.006 0.457 0 2.613-0.571 5.093-1.596 7.321l0.045-0.109c-1.149 2.274-2.755 4.165-4.709 5.61l-0.043 0.030c-4.887 3.902-16.207 8.673-35.968 8.635-13.56-0.058-20.862-3.013-25.092-5.756-3.482-2.196-6.147-5.41-7.606-9.221l-0.043-0.129c-0.818-2.082-1.291-4.494-1.291-7.016 0-1.967 0.288-3.867 0.825-5.66l-0.036 0.139 1.275-2.163c1.159-1.429 4.906-4.288 12.15-7.051 4.752-1.854 10.759-3.651 17.54-5.428 9.021-2.376 19.375-4.675 30.211-7.707 14.41-4.134 30.018-9.291 44.873-20.109 8.383-6.181 16.4-14.526 22.118-24.996 6.606-11.938 9.871-26.116 9.832-40.816 0.058-15.936-3.902-31.506-12.073-44.332z" />
<glyph unicode="&#xe910;" glyph-name="dinner" d="M528.362 706.168c-187.292 0-339.122-151.83-339.122-339.122s151.83-339.122 339.122-339.122 339.122 151.83 339.122 339.122-151.83 339.122-339.122 339.122zM528.36 109.728c-141.884 0-257.316 115.432-257.316 257.316s115.432 257.316 257.316 257.316 257.316-115.432 257.316-257.316-115.43-257.316-257.316-257.316zM528.36 555.388c-103.852 0-188.342-84.49-188.342-188.342s84.49-188.342 188.342-188.342c103.852 0 188.342 84.49 188.342 188.342s-84.488 188.342-188.342 188.342zM1002.63 338.612v412.094c0 3.976-2.538 7.51-6.31 8.78-3.768 1.268-7.926-0.014-10.332-3.182-51.416-67.806-79.244-150.566-79.244-235.66v-150.756c0-17.29 14.016-31.308 31.308-31.308h13.052c-12.866-132.886-21.368-318.74-21.368-340.502 0-34.284 21.102-62.076 47.132-62.076s47.132 27.794 47.132 62.076c0 21.764-8.502 207.648-21.37 340.534zM136.834 420.3c26.084 15.8 43.518 44.448 43.518 77.172l-12.92 211.242c-0.494 8.052-7.168 14.33-15.236 14.33-8.726 0-15.678-7.31-15.244-16.020l8.402-169.418c0-9.524-7.722-17.242-17.242-17.242-9.522 0-17.242 7.722-17.242 17.242l-4.198 169.348c-0.222 8.95-7.54 16.088-16.494 16.088s-16.27-7.14-16.494-16.088l-4.198-169.348c0-9.524-7.722-17.242-17.242-17.242-9.522 0-17.242 7.722-17.242 17.242l8.402 169.418c0.432 8.714-6.524 16.020-15.244 16.020-8.068 0-14.742-6.278-15.234-14.33l-12.926-211.244c0-32.724 17.432-61.37 43.518-77.172 16.976-10.282 26.44-29.506 24.252-49.234-14.726-132.716-24.726-349.386-24.726-372.988 0-34.284 21.102-62.076 47.132-62.076s47.132 27.794 47.132 62.076c0 23.602-10.002 240.272-24.726 372.988-2.19 19.718 7.284 38.958 24.252 49.236z" />
<glyph unicode="&#xe911;" glyph-name="human" d="M630.805 840.668c0-65.905-53.191-119.332-118.805-119.332s-118.805 53.427-118.805 119.332c0 65.905 53.191 119.332 118.805 119.332s118.805-53.427 118.805-119.332zM766.804 350.075l-29.806 208.627c-10.936 71.845-74.686 130.3-142.108 130.3h-10.347c-21.963-10.612-46.573-16.57-72.542-16.57s-50.576 5.958-72.542 16.57h-10.337c-67.429 0-131.182-58.454-142.146-130.479l-29.782-208.451c-1.079-7.554 2.41-15.029 8.899-19.049l85.399-52.9 39.798-279.028c4.627-35.375 34.485-63.095 67.977-63.095h105.465c33.492 0 63.354 27.72 67.949 62.878l39.822 279.245 85.402 52.903c6.485 4.017 9.981 11.492 8.899 19.049z" />
<glyph unicode="&#xe912;" glyph-name="file_download" d="M810.667 576h-170.667v256h-256v-256h-170.667l298.667-298.667 298.667 298.667zM213.333 192v-85.333h597.333v85.333h-597.333z" />
<glyph unicode="&#xe913;" glyph-name="file_upload" d="M384 277.333h256v256h170.667l-298.667 298.667-298.667-298.667h170.667zM213.333 192h597.333v-85.333h-597.333z" />
<glyph unicode="&#xe914;" glyph-name="comment" d="M938.24 789.333c0 46.933-37.973 85.333-84.907 85.333h-682.667c-46.933 0-85.333-38.4-85.333-85.333v-512c0-46.933 38.4-85.333 85.333-85.333h597.333l170.667-170.667-0.427 768zM768 362.667h-512v85.333h512v-85.333zM768 490.667h-512v85.333h512v-85.333zM768 618.667h-512v85.333h512v-85.333z" />
<glyph unicode="&#xe915;" glyph-name="baby-with-diaper" d="M660.937 311.423c0 0 97.879-97.995 98.137-98.137 31.21-31.455 23.137-86.729-6.463-116.806l-136.532-142.274c-52.738-52.596-123.205 20.408-72.013 71.33l86.613 86.678-84.798 84.128 115.055 115.081zM356.522 311.423v0c0 0-97.738-97.995-97.738-98.137-31.468-31.455-23.395-86.729 5.871-116.806l137.137-142.274c52.532-52.596 123.012 20.408 72.077 71.33l-86.472 86.678 84.141 84.128-115.017 115.081zM512.135 675.98c78.399 0 142.004 63.438 142.004 142.21 0 78.309-63.592 141.811-142.004 141.811-78.476 0-142.21-63.502-142.21-141.811 0-78.708 63.669-142.21 142.21-142.21zM666.010 368.294l2.073 96.875 118.068-110.137c9.605-9.142 21.94-13.468 34.275-13.468 13.326 0 26.871 5.33 36.734 15.863 18.94 20.395 17.871 52.133-2.408 71.073 0 0-135.334 147.077-154.802 164.214-36 31.931-88.802 50.034-174.476 50.034h-26.871c-85.738 0-138.476-18.103-174.617-49.97-19.39-17.137-154.738-164.278-154.738-164.278-20.202-18.927-21.399-50.678-2.408-71.073 9.875-10.532 23.33-15.863 36.747-15.863 12.335 0 24.669 4.326 34.339 13.468l118.017 110.073 2.060-96.862 308.020 0.052z" />
<glyph unicode="&#xe916;" glyph-name="package" d="M541.004 443.386v-507.386h59.6v529.22zM181.004 312.368v-286.368c0-49.628 40.372-90 90-90h209.6v485.55l-299.6-109.182zM661.004 480v-544h210c49.628 0 89.6 40.372 89.6 90v454h-299.6zM911.93 801.856c-16.894 46.352-67.946 70.872-115.342 53.79l-256.3-93.282 87.242-223.638 335.728 122.182-51.328 140.948zM371.154 700.81l-251.148-91.406c-46.68-17.010-70.858-68.504-53.788-115.342l51.298-140.948 340.888 124.062-87.25 223.634zM483.504 741.698l-56.388-20.522 88.062-223.338 56.39 20.522zM653.974 936.39c-34.69 25.372-79.134 30.674-118.742 14.064-39.638-16.552-67.12-51.796-73.506-94.278l-10.092-62.226 64.19 23.364 5.258 29.956c3.222 21.562 17.138 39.434 37.266 47.812 19.432 8.17 42.066 6.112 60.234-7.148 10.722-7.848 17.894-13.386 21.812-25.28l55.98 20.376c-7.972 22.928-22.028 38.456-42.4 53.36zM378.608 831.064c-32.194 28.478-75.964 37.822-116.922 24.99-41.016-12.832-71.63-45.38-81.884-87.1-6.024-24.51-3.498-49.388 5.134-72.078l55.964 20.372c-4.648 11.638-6.036 24.438-2.856 37.35 5.214 21.182 20.742 37.676 41.542 44.18 20.108 6.35 42.492 2.182 59.296-12.656l26.606-23.53 64.156 23.354-51.036 45.118z" />
<glyph unicode="&#xe917;" glyph-name="add-package" d="M426.667 389.973v-443.733h51.2v460.8zM112.64 273.92v-249.173c0-44.373 34.133-78.507 78.507-78.507h180.907v423.253l-259.413-95.573zM529.067 420.693v-474.453h184.32c44.373 0 78.507 34.133 78.507 78.507v395.947h-262.827zM747.52 700.587c-13.653 40.96-58.027 61.44-98.987 47.787l-221.867-81.92 75.093-194.56 293.547 105.813-47.787 122.88zM276.48 611.84l-218.453-78.507c-40.96-13.653-61.44-58.027-47.787-98.987l47.787-122.88 296.96 109.227-78.507 191.147zM375.467 649.387l-47.787-20.48 75.093-194.56 51.2 20.48zM525.653 816.64c-30.72 20.48-68.267 27.307-102.4 13.653s-58.027-44.373-64.853-81.92l-10.24-54.613 54.613 20.48 6.827 27.307c3.413 17.067 13.653 34.133 34.133 40.96 13.653 6.827 34.133 3.413 51.2-6.827 10.24-6.827 17.067-10.24 20.48-20.48l47.787 17.067c-10.24 17.067-20.48 30.72-37.547 44.373zM283.307 724.48c-27.307 23.893-64.853 34.133-102.4 20.48-34.133-10.24-61.44-40.96-71.68-75.093-6.827-20.48-3.413-44.373 3.413-61.44l47.787 17.067c-3.413 10.24-6.827 20.48-3.413 34.133 3.413 17.067 17.067 34.133 37.547 37.547 20.48 6.827 40.96 3.413 54.613-10.24l23.893-20.48 54.613 20.48-44.373 37.547zM1024 768.853h-133.12v-133.12h-44.373v133.12h-133.12v44.373h133.12v133.12h44.373v-133.12h133.12v-44.373z" />
<glyph unicode="&#xe918;" glyph-name="barcode" d="M0 832h128v-640h-128zM192 832h64v-640h-64zM320 832h64v-640h-64zM512 832h64v-640h-64zM768 832h64v-640h-64zM960 832h64v-640h-64zM640 832h32v-640h-32zM448 832h32v-640h-32zM864 832h32v-640h-32zM0 128h64v-64h-64zM192 128h64v-64h-64zM320 128h64v-64h-64zM640 128h64v-64h-64zM960 128h64v-64h-64zM768 128h128v-64h-128zM448 128h128v-64h-128z" />
<glyph unicode="&#xe919;" glyph-name="flag" d="M0 960h128v-1024h-128v1024zM832 316.998c82.624 0 154.57 19.984 192 49.5v512c-37.43-29.518-109.376-49.502-192-49.502s-154.57 19.984-192 49.502v-512c37.43-29.516 109.376-49.5 192-49.5zM608 927.472c-46.906 19.94-115.52 32.528-192 32.528-96.396 0-180.334-19.984-224-49.502v-512c43.666 29.518 127.604 49.502 224 49.502 76.48 0 145.094-12.588 192-32.528v512z" />
<glyph unicode="&#xe91a;" glyph-name="trolley" d="M694.931 195.247c-20.602 40.956-55.922 71.44-99.448 85.83-43.534 14.394-90.056 10.974-131.008-9.63-40.958-20.602-71.44-55.92-85.83-99.448-14.394-43.528-10.972-90.056 9.63-131.012 20.602-40.954 55.922-71.436 99.448-85.828 17.712-5.858 35.922-8.762 54.050-8.762 26.422 0 52.672 6.176 76.96 18.394 40.956 20.602 71.436 55.92 85.83 99.448 14.39 43.524 10.97 90.052-9.632 131.008zM601.479-0.92c-19.156-9.638-39.554-14.202-59.664-14.198-48.79 0.002-95.87 26.874-119.252 73.354-15.996 31.796-18.65 67.918-7.478 101.71 11.174 33.792 34.836 61.21 66.634 77.206 18.856 9.488 39.236 14.28 59.748 14.28 14.074 0 28.208-2.258 41.962-6.802 33.792-11.174 61.212-34.836 77.206-66.634 33.020-65.638 6.482-145.9-59.156-178.916zM622.807 158.964c-22.526 44.774-77.28 62.876-122.054 40.354-44.774-22.524-62.878-77.276-40.358-122.054 15.952-31.71 48.066-50.042 81.354-50.042 13.716 0 27.632 3.114 40.698 9.686 44.78 22.524 62.884 77.278 40.36 122.056zM565.197 71.206c-25.866-13.012-57.494-2.554-70.508 23.312-13.012 25.866-2.554 57.496 23.31 70.508 7.55 3.798 15.588 5.598 23.514 5.598 19.23 0 37.782-10.592 46.996-28.906 13.014-25.872 2.554-57.502-23.312-70.512zM464.665 313.771l-250.854 498.687c-21.264 42.262-72.94 59.35-115.214 38.094l-88.022-44.28c-9.47-4.762-13.286-16.302-8.522-25.774 4.76-9.47 16.3-13.282 25.772-8.522l88.026 44.28c23.364 11.75 51.92 2.304 63.666-21.050l250.856-498.683c3.368-6.702 10.134-10.572 17.16-10.572 2.9 0 5.842 0.658 8.61 2.050 9.468 4.76 13.284 16.3 8.522 25.77zM993.776 345.575c-4.762 9.472-16.302 13.29-25.772 8.522l-250.58-126.048c-9.47-4.762-13.286-16.302-8.522-25.772 3.37-6.706 10.138-10.572 17.162-10.572 2.9 0 5.842 0.658 8.61 2.050l250.58 126.048c9.468 4.762 13.284 16.302 8.522 25.772zM818.594 847.742l-45.92 91.288c-4.762 9.47-16.302 13.288-25.772 8.522l-423.679-213.124c-4.548-2.288-8-6.288-9.6-11.122-1.596-4.834-1.21-10.104 1.078-14.652l193.384-384.433c3.37-6.702 10.138-10.572 17.162-10.572 2.9 0 5.842 0.658 8.61 2.050 9.47 4.762 13.286 16.302 8.522 25.774l-184.758 367.285 389.383 195.874 37.296-74.142c4.76-9.47 16.298-13.282 25.772-8.522 9.468 4.762 13.284 16.302 8.522 25.774zM1021.952 443.477l-170.956 339.843c-4.762 9.47-16.306 13.282-25.772 8.522-9.47-4.766-13.286-16.302-8.522-25.774l162.332-322.697-297.905-149.856c-9.47-4.762-13.286-16.302-8.522-25.772 3.37-6.706 10.138-10.572 17.162-10.572 2.9 0 5.842 0.658 8.61 2.050l315.053 158.482c4.548 2.288 8 6.288 9.6 11.122 1.596 4.834 1.208 10.104-1.080 14.652zM650.821 653.571l67.166-22.21c10.064-3.324 20.924 2.136 24.252 12.2 3.328 10.066-2.134 20.922-12.2 24.252l-111.162 36.754c-4.832 1.6-10.102 1.214-14.652-1.074s-8-6.288-9.6-11.122l-36.754-111.162c-3.328-10.066 2.134-20.922 12.2-24.252 1.998-0.66 4.030-0.976 6.028-0.976 8.054 0 15.556 5.108 18.222 13.172l22.206 67.162 90.124-179.158c3.37-6.702 10.138-10.572 17.162-10.572 2.9 0 5.842 0.66 8.61 2.050 9.47 4.762 13.286 16.302 8.522 25.774l-90.124 179.162z" />
<glyph unicode="&#xe91b;" glyph-name="server2" d="M925.9 896.2c0 35.1-28.6 63.8-63.8 63.8h-699.9c-35.1 0-63.8-28.6-63.8-63.8v-144.5c0-17.4 7.1-33.2 18.4-44.7-11.3-11.5-18.4-27.4-18.4-44.7v-144.5c0-17.4 7.1-33.2 18.4-44.7-11.3-11.5-18.4-27.4-18.4-44.7v-144.5c0-35.1 28.6-63.8 63.8-63.8h699.9c35.1 0 63.8 28.6 63.8 63.8v144.4c0 17.4-7.1 33.2-18.4 44.7 11.3 11.5 18.4 27.4 18.4 44.7v144.6c0 17.4-7.1 33.2-18.4 44.7 11.3 11.5 18.4 27.4 18.4 44.7v144.5zM136.3 896.2c0 14.2 11.5 25.7 25.7 25.7h700c14.2 0 25.9-11.5 25.9-25.7v-144.5c0-14.2-11.5-25.9-25.9-25.9h-699.8c-14.2 0-25.7 11.5-25.7 25.9v144.5h-0.2zM888.1 662.3v-144.5c0-14.2-11.5-25.7-25.9-25.7h-700c-14.2 0-25.7 11.5-25.7 25.7v144.5c0 14.2 11.5 25.7 25.7 25.7h699.9c14.3 0 26-11.5 26-25.7zM888.1 283.9c0-14.2-11.5-25.7-25.9-25.7h-700c-14.2 0-25.7 11.5-25.7 25.7v144.4c0 14.2 11.5 25.7 25.7 25.7h699.9c14.2 0 25.9-11.5 25.9-25.7v-144.4zM503.8 805.1h236.2c10.5 0 19 8.6 19 19s-8.6 19-19 19h-236.2c-10.5 0-19-8.6-19-19s8.6-19 19-19zM333.7 823.9c0-12.5-10.1-22.6-22.6-22.6s-22.6 10.1-22.6 22.6 10.1 22.6 22.6 22.6 22.6-10.1 22.6-22.6zM503.8 571.1h236.2c10.5 0 19 8.6 19 19s-8.6 19-19 19h-236.2c-10.5 0-19-8.6-19-19 0.2-10.6 8.6-19 19-19zM740.1 375h-236.3c-10.5 0-19-8.6-19-19s8.6-19 19-19h236.2c10.5 0 19 8.6 19 19s-8.5 19-18.9 19zM333.7 590c0-12.5-10.1-22.6-22.6-22.6s-22.6 10.1-22.6 22.6 10.1 22.6 22.6 22.6 22.6-10.2 22.6-22.6zM333.7 356c0-12.5-10.1-22.6-22.6-22.6s-22.6 10.1-22.6 22.6 10.1 22.6 22.6 22.6 22.6-10.1 22.6-22.6zM883.9 86.1c-34.7 0-64-23.8-72.5-56h-226.6c-6.9 26.1-27.4 46.6-53.5 53.5v59.4c0 10.5-8.6 19-19 19s-19-8.6-19-19v-59.4c-26.1-6.9-46.6-27.4-53.5-53.5h-227.4c-8.4 32.2-37.6 56-72.5 56-41.4 0-75.1-33.7-75.1-75.1s33.7-75.1 75.1-75.1c34.7 0 64 23.8 72.5 56h227.3c8.4-32.2 37.6-56 72.5-56s64 23.8 72.5 56h226.8c8.4-32.2 37.6-56 72.5-56 41.4 0 75.1 33.7 75.1 75.1s-33.8 75.1-75.2 75.1v0zM140.1-26c-20.5 0-37.2 16.7-37.2 37.2s16.7 37.2 37.2 37.2 37.2-16.7 37.2-37.2-16.9-37.2-37.2-37.2zM512.2-26c-20.5 0-37.2 16.7-37.2 37.2s16.7 37.2 37.2 37.2c20.5 0 37.2-16.7 37.2-37.2s-16.7-37.2-37.2-37.2zM883.9-26c-20.5 0-37.2 16.7-37.2 37.2s16.7 37.2 37.2 37.2 37.2-16.7 37.2-37.2-16.7-37.2-37.2-37.2z" />
<glyph unicode="&#xe91c;" glyph-name="golf_course" d="M726 708l-256-132v-386c122-6 212-42 212-84 0-46-114-84-256-84s-256 38-256 84c0 32 52 60 128 74v-74h86v768zM768 128c0 36 28 64 64 64s64-28 64-64-28-64-64-64-64 28-64 64z" />
<glyph unicode="&#xe91d;" glyph-name="heart" d="M755.188 896c-107.63 0-200.258-87.554-243.164-179-42.938 91.444-135.578 179-243.216 179-148.382 0-268.808-120.44-268.808-268.832 0-301.846 304.5-380.994 512.022-679.418 196.154 296.576 511.978 387.206 511.978 679.418 0 148.392-120.43 268.832-268.812 268.832z" />
<glyph unicode="&#xe91e;" glyph-name="lock" d="M592 512h-16v192c0 105.87-86.13 192-192 192h-128c-105.87 0-192-86.13-192-192v-192h-16c-26.4 0-48-21.6-48-48v-480c0-26.4 21.6-48 48-48h544c26.4 0 48 21.6 48 48v480c0 26.4-21.6 48-48 48zM192 704c0 35.29 28.71 64 64 64h128c35.29 0 64-28.71 64-64v-192h-256v192z" />
<glyph unicode="&#xe91f;" glyph-name="man" d="M576 864c0-53.020-42.98-96-96-96s-96 42.98-96 96c0 53.018 42.98 96 96 96s96-42.982 96-96zM576 704h-192c-35.346 0-64-28.654-64-64v-320h64v-384h80v384h32v-384h80v384h64v320c0 35.346-28.652 64-64 64z" />
<glyph unicode="&#xe920;" glyph-name="target" d="M1024 512h-100.924c-27.64 178.24-168.836 319.436-347.076 347.076v100.924h-128v-100.924c-178.24-27.64-319.436-168.836-347.076-347.076h-100.924v-128h100.924c27.64-178.24 168.836-319.436 347.076-347.076v-100.924h128v100.924c178.24 27.64 319.436 168.836 347.076 347.076h100.924v128zM792.822 512h-99.762c-19.284 54.55-62.51 97.778-117.060 117.060v99.762c107.514-24.49 192.332-109.31 216.822-216.822zM512 384c-35.346 0-64 28.654-64 64s28.654 64 64 64c35.346 0 64-28.654 64-64s-28.654-64-64-64zM448 728.822v-99.762c-54.55-19.282-97.778-62.51-117.060-117.060h-99.762c24.49 107.512 109.31 192.332 216.822 216.822zM231.178 384h99.762c19.282-54.55 62.51-97.778 117.060-117.060v-99.762c-107.512 24.49-192.332 109.308-216.822 216.822zM576 167.178v99.762c54.55 19.284 97.778 62.51 117.060 117.060h99.762c-24.49-107.514-109.308-192.332-216.822-216.822z" />
<glyph unicode="&#xe921;" glyph-name="percentage" d="M418.732 534.973c0-23.64-19.164-42.804-42.804-42.804s-42.804 19.164-42.804 42.804c0 23.64 19.164 42.804 42.804 42.804s42.804-19.164 42.804-42.804zM690.664 361.239c0-23.64-19.164-42.804-42.804-42.804s-42.804 19.164-42.804 42.804c0 23.64 19.164 42.804 42.804 42.804s42.804-19.164 42.804-42.804zM1000.785 391.453l-15.527 21.192c-16.786 23.081-17.206 54.345-0.629 77.845l15.107 21.402c23.081 32.733 12.38 78.265-23.081 97.359l-23.081 12.38c-25.179 13.429-39.027 41.545-34.201 69.872l4.406 25.808c6.714 39.447-22.871 75.956-62.947 77.635l-26.228 1.049c-28.536 1.259-53.295 20.563-61.269 48.050l-7.344 25.179c-11.121 38.608-53.505 58.541-90.434 42.594l-24.13-10.281c-26.228-11.331-56.862-4.616-75.956 16.786l-17.415 19.514c-26.648 29.795-73.439 29.585-99.876-0.839l-17.206-19.723c-18.884-21.612-49.309-28.746-75.747-17.835l-24.34 10.072c-37.139 15.317-79.104-5.455-89.805-44.063l-6.924-25.389c-7.554-27.697-31.893-47.42-60.429-48.889l-26.228-1.469c-40.076-2.308-69.032-39.237-61.688-78.684l4.826-25.808c5.246-28.116-8.183-56.443-33.152-70.291l-22.871-12.799c-35.041-19.514-45.112-65.255-21.402-97.568l15.527-21.192c16.786-23.081 17.206-54.345 0.629-77.845l-15.107-21.402c-23.081-32.733-12.38-78.265 23.081-97.359l23.081-12.38c25.179-13.429 39.027-41.545 34.201-69.872l-4.406-25.808c-6.714-39.447 22.871-75.956 62.947-77.635l26.228-1.049c28.536-1.259 53.295-20.563 61.269-48.050l7.344-25.179c11.121-38.608 53.505-58.541 90.434-42.594l24.13 10.281c26.228 11.331 56.862 4.616 75.956-16.786l17.415-19.514c26.858-29.795 73.648-29.585 99.876 0.839l17.206 19.723c18.884 21.612 49.309 28.746 75.747 17.835l24.34-10.072c37.139-15.317 79.104 5.455 89.805 44.063l6.924 25.389c7.554 27.697 31.893 47.42 60.429 48.889l26.228 1.469c40.076 2.308 69.032 39.237 61.688 78.684l-4.826 25.808c-5.246 28.116 8.183 56.443 33.152 70.291l22.871 12.799c35.041 19.304 45.112 65.046 21.402 97.568zM272.484 534.973c0 57.072 46.161 103.234 103.234 103.234s103.234-46.161 103.234-103.234-46.161-103.234-103.234-103.234-103.234 46.371-103.234 103.234zM395.651 268.706c-8.813-10.701-24.759-12.17-35.46-3.357v0c-10.701 8.813-12.17 24.759-3.357 35.46l270.883 326.277c8.813 10.701 24.759 12.17 35.46 3.357s12.17-24.759 3.357-35.46l-270.883-326.277zM647.86 258.005c-57.072 0-103.234 46.161-103.234 103.234s46.161 103.234 103.234 103.234 103.234-46.161 103.234-103.234-46.161-103.234-103.234-103.234z" />
<glyph unicode="&#xe922;" glyph-name="product" d="M444.632 461.474c0 0 1.064-9.795 13.474-13.474h262.737c0 0 2.109-3.853 13.474 6.737v141.474h-289.684v-134.737zM444.632 629.895h47.158c0 0-4.109-29.885 6.737-33.684s-53.895-13.474-53.895-13.474v47.158zM673.684 636.632c0 0 7.64-3.732 6.737-13.474v-20.211c0 0 2.136-2.937-6.737-6.737h60.632v33.684l-33.684 13.474-26.947-6.737zM498.526 636.632h175.158l60.632-6.737h20.211c0 0 9.533 3.517 13.474 13.474v33.684h-357.053v-40.421c0 0 8.34-6.009 13.474-6.737s20.211 0 20.211 0l47.158-6.737c0 0-2.715 10.321 6.737 13.474zM579.368 737.684h-121.263c0 0-10.132-9.802-6.737-13.474v-40.421c0 0-2.52-2.964 6.737-6.737h-47.158v87.579c0 0 5.187 16.424 13.474 13.474h330.105c0 0 12.685-1.94 13.474-13.474v-87.579c0 0-25.465 0-35.968 0-2.735 0-4.453 0-4.453 0v53.895c0 0 3.079 7.074-6.737 6.737s-141.474 0-141.474 0zM141.474 232.421l87.579-114.526c0 0 6.737-5.053 20.211 0l87.579 74.105c0 0 8.421 11.789 26.947 6.737l181.895-40.421c0 0 16.842-6.737 33.684 6.737l256 141.474c0 0 37.053 35.368 20.211 74.105 0 0-13.474 32-67.368 20.211l-249.263-141.474-114.526 33.684c0 0-20.211 23.579 13.474 13.474l94.316-26.947c0 0 60.632-8.421 67.368 33.684 0 0 10.105 42.105-74.105 67.368l-94.316 26.947c0 0-85.895 11.789-134.737-40.421l-148.211-114.526c0 0-6.737-5.053-6.737-20.211z" />
<glyph unicode="&#xe923;" glyph-name="services" d="M141.474 232.421l87.579-114.526c0 0 6.737-5.053 20.211 0l87.579 74.105c0 0 8.421 11.789 26.947 6.737l181.895-40.421c0 0 16.842-6.737 33.684 6.737l256 141.474c0 0 37.053 35.368 20.211 74.105 0 0-13.474 32-67.368 20.211l-249.263-141.474-114.526 33.684c0 0-20.211 23.579 13.474 13.474l94.316-26.947c0 0 60.632-8.421 67.368 33.684 0 0 10.105 42.105-74.105 67.368l-94.316 26.947c0 0-85.895 11.789-134.737-40.421l-148.211-114.526c0 0-6.737-5.053-6.737-20.211zM471.579 602.947l-40.421 26.947 26.947 47.158 40.421-13.474 20.211 13.474-13.474 47.158 47.158 26.947 33.684-40.421h20.211l26.947 40.421 53.895-26.947-13.474-40.421 13.474-20.211 40.421 13.474 33.684-53.895-47.158-26.947v-20.211l47.158-26.947-26.947-47.158-47.158 13.474-20.211-20.211 13.474-47.158-47.158-20.211-20.211 40.421h-33.684l-26.947-40.421-47.158 20.211 13.474 47.158-13.474 20.211-53.895-13.474-20.211 53.895 40.421 20.211c0 0 12.308 6.737 20.211 6.737 3.321 0 6.737-6.737 6.737-6.737l13.474-20.211 26.947-33.684 26.947-20.211 40.421-6.737h33.684l20.211 20.211 13.474 20.211 13.474 26.947 6.737 26.947-6.737 26.947-20.211 26.947-20.211 20.211-20.211 13.474-33.684 6.737-33.684-6.737-20.211-20.211-26.947-20.211v-20.211l-6.737-20.211v-13.474l-33.684 20.211z" />
<glyph unicode="&#xe924;" glyph-name="bulkhour-voucher" d="M47.158 535.579c0 0 103.485 10.361 107.789-87.579 0 0 1.475-99.389-107.789-101.053v-33.684h33.684c0 0 100.541 8.131 107.789 134.737 0 0 16.054 96.808-107.789 121.263h-33.684v-33.684zM47.158 717.474c0 0 8.307 56.367 67.368 53.895h808.421c0 0 57.573-0.943 67.368-60.632v-168.421c0 0-110.713 7.667-107.789-101.053 0 0-5.524-91.055 107.789-94.316v-175.158c0 0-15.535-56.731-67.368-53.895h-815.158c0 0-61.251 15.643-60.632 67.368v134.737h33.684v-141.474c0 0 22.151-37.511 60.632-26.947h781.474c0 0 37.982 6.454 33.684 53.895v101.053c0 0-107.789 23.687-107.789 134.737 0 0-8.947 117.881 107.789 128v134.737c0 0-4.507 47.064-80.842 33.684h-768c0 0-30.511 3.469-26.947-47.158v-121.263h-33.684v148.211zM276.211 326.737h20.211v-40.421h-20.211v40.421zM276.211 394.105h20.211v-40.421h-20.211v40.421zM276.211 461.474h20.211v-40.421h-20.211v40.421zM276.211 528.842h20.211v-40.421h-20.211v40.421zM276.211 596.211h20.211v-40.421h-20.211v40.421zM741.053 596.211h20.211v-40.421h-20.211v40.421zM741.053 528.842h20.211v-40.421h-20.211v40.421zM741.053 461.474h20.211v-40.421h-20.211v40.421zM741.053 394.105h20.211v-40.421h-20.211v40.421zM741.053 326.737h20.211v-40.421h-20.211v40.421zM486.777 552.63c0 8.657 0.371 14.471 1.105 17.455 0.741 2.991 2.587 4.925 5.538 5.821 2.944 0.896 7.525 1.347 13.73 1.347h21.255c23.909 0 40.879-5.073 50.924-15.219 10.031-10.152 15.050-27.763 15.050-52.837 0-22.387-6.205-38.36-18.594-47.906-10.341-8.057-26.28-12.093-47.818-12.093h-41.189v103.431zM641.954 319.818c15.414 14.525 23.121 30.093 23.121 46.693 0 20.453-6.797 37.208-20.386 50.25-16.559 16.007-42.57 26.247-78.026 30.693 33.664 5.032 56.556 13.629 68.675 25.775 9.155 8.893 13.73 22.225 13.73 40.010 0 14.525-7.559 28.598-22.676 42.233-18.971 17.192-44.463 25.782-76.477 25.782h-181.854v-4.002c29.049 0 47.872-1.637 56.468-4.904 3.261-1.192 5.187-2.378 5.78-3.571 1.186-2.378 1.779-7.734 1.779-16.054v-228.83c0-8.623-0.593-14.046-1.779-16.276-1.186-2.243-3.261-3.948-6.225-5.133-6.225-2.378-24.899-3.571-56.024-3.571v-4.446h207.198c26.678 0 48.909 8.448 66.695 25.351v0zM592.094 423.343c11.008-13.379 16.512-32.404 16.512-57.081 0-20.81-4.763-37.019-14.282-48.613-10.415-12.787-26.179-19.18-47.299-19.18-20.231 0-33.105 0.148-38.602 0.445-5.504 0.296-9.971 1.112-13.393 2.452-3.416 1.334-5.645 3.2-6.69 5.571-1.037 2.378-1.563 8.037-1.563 16.957v121.304h52.662c23.208 0 40.751-7.283 52.655-21.854v0z" />
<glyph unicode="&#xe925;" glyph-name="price" d="M213.333 704h768v-512h-768v512zM597.333 576c70.692 0 128-57.308 128-128v0c0-70.692-57.308-128-128-128v0c-70.692 0-128 57.308-128 128v0c0 70.692 57.308 128 128 128v0zM384 618.667c0-47.128-38.205-85.333-85.333-85.333v0-170.667c47.128 0 85.333-38.205 85.333-85.333v0h426.667c0 47.128 38.205 85.333 85.333 85.333v0 170.667c-47.128 0-85.333 38.205-85.333 85.333v0h-426.667zM42.667 533.333h85.333v-426.667h682.667v-85.333h-768v512z" />
<glyph unicode="&#xe926;" glyph-name="experience-voucher" d="M47.158 535.579c0 0 103.485 10.361 107.789-87.579 0 0 1.475-99.389-107.789-101.053v-33.684h33.684c0 0 100.541 8.131 107.789 134.737 0 0 16.054 96.808-107.789 121.263h-33.684v-33.684zM47.158 717.474c0 0 8.307 56.367 67.368 53.895h808.421c0 0 57.573-0.943 67.368-60.632v-168.421c0 0-110.713 7.667-107.789-101.053 0 0-5.524-91.055 107.789-94.316v-175.158c0 0-15.535-56.731-67.368-53.895h-815.158c0 0-61.251 15.643-60.632 67.368v134.737h33.684v-141.474c0 0 22.151-37.511 60.632-26.947h781.474c0 0 37.982 6.454 33.684 53.895v101.053c0 0-107.789 23.687-107.789 134.737 0 0-8.947 117.881 107.789 128v134.737c0 0-4.507 47.064-80.842 33.684h-768c0 0-30.511 3.469-26.947-47.158v-121.263h-33.684v148.211zM276.211 326.737h20.211v-40.421h-20.211v40.421zM276.211 394.105h20.211v-40.421h-20.211v40.421zM276.211 461.474h20.211v-40.421h-20.211v40.421zM276.211 528.842h20.211v-40.421h-20.211v40.421zM276.211 596.211h20.211v-40.421h-20.211v40.421zM741.053 596.211h20.211v-40.421h-20.211v40.421zM741.053 528.842h20.211v-40.421h-20.211v40.421zM741.053 461.474h20.211v-40.421h-20.211v40.421zM741.053 394.105h20.211v-40.421h-20.211v40.421zM741.053 326.737h20.211v-40.421h-20.211v40.421zM540.261 433.637c10.907-9.485 18.567-34.533 22.993-75.143h5.336v175.185h-5.336c-4.426-41.499-12.234-66.991-23.431-76.477-7.377-6.225-26.395-9.337-57.048-9.337v104.32c0 8.657 0.519 13.945 1.549 15.892 1.037 1.94 2.883 3.51 5.544 4.702 8.866 2.681 18.991 4.103 30.37 4.251s22.683 0.222 33.913 0.222c28.086 0 49.805-13.844 65.179-41.519 11.52-20.837 17.287-42.718 17.287-65.637h5.78v111.158h-274.338v-4.002c11.56 0 22.38-0.593 32.458-1.785s16.748-2.378 20.008-3.571c3.261-1.186 5.187-2.371 5.78-3.564 1.186-2.082 1.779-7.437 1.779-16.054v-228.386c0-8.327-0.519-13.46-1.556-15.387-1.037-1.933-3.038-3.496-6.003-4.689-8.596-3.267-26.085-4.904-52.467-4.904v-4.446h289.011v132.056h-5.78c-4.433-44.322-15.299-76.524-32.593-96.6-17.3-20.076-42.799-30.12-76.497-30.12-15.966 0-27.048 0.148-33.26 0.445s-11.682 1.26-16.411 2.897c-4.729 1.644-7.539 3.496-8.428 5.585-0.889 2.075-1.327 7.276-1.327 15.609v119.080c30.653 0 49.812-3.261 57.485-9.782v0z" />
<glyph unicode="&#xe927;" glyph-name="branding-areas" d="M993.524 918h-963.046c-16.828 0-30.477-13.648-30.477-30.477v-528.468c0-16.828 13.648-30.469 30.477-30.469h49.688v-318.414c0-16.828 13.641-30.477 30.477-30.477h96.266c16.828 0 30.477 13.648 30.477 30.477v318.414h561.438v-318.414c0-16.828 13.648-30.477 30.477-30.477h96.273c16.828 0 30.477 13.648 30.477 30.477v318.414h37.477c16.828 0 30.477 13.641 30.477 30.469v528.468c0 16.828-13.648 30.477-30.477 30.477zM176.43 40.648h-35.313v285.578h35.313zM895.094 40.648h-35.32v285.578h35.32zM963.047 857.046v-311.218h-38.484l-90.172 90.172c-11.898 11.906-31.195 11.906-43.102 0l-70.563-70.563-67.844 67.852c-11.898 11.898-31.195 11.898-43.102 0l-87.578-87.578h-461.25v311.336zM60.953 389.53v95.227h473.868c8.086 0 15.836 3.211 21.555 8.922l74.953 74.961 67.852-67.844c11.898-11.906 31.195-11.906 43.102 0l70.555 70.555 77.555-77.547c5.719-5.719 13.469-8.93 21.547-8.93h51.109v-95.344zM243.938 599.196h166.992c50.539 0 91.656 41.117 91.656 91.664 0 48.125-37.289 87.703-84.484 91.375-21.328 28.094-54.57 44.906-90.664 44.906-36.102 0-69.344-16.813-90.672-44.906-47.195-3.672-84.484-43.258-84.484-91.383 0-50.539 41.117-91.656 91.656-91.656zM243.938 721.563c1.57 0 3.141-0.117 4.672-0.352 12.93-1.961 25.68 4.547 31.664 16.172 9.156 17.766 27.227 28.805 47.164 28.805s38-11.039 47.156-28.805c5.992-11.625 18.719-18.141 31.664-16.172 1.539 0.234 3.109 0.352 4.672 0.352 16.93 0 30.703-13.773 30.703-30.703s-13.773-30.711-30.703-30.711h-166.984c-16.938 0-30.711 13.781-30.711 30.711s13.773 30.703 30.703 30.703zM720.626 655.196c46.836 0 84.945 38.102 84.945 84.938 0 46.844-38.109 84.945-84.945 84.945s-84.945-38.102-84.945-84.945c0-46.836 38.109-84.938 84.945-84.938zM720.626 764.126c13.227 0 23.992-10.766 23.992-23.992s-10.766-23.984-23.992-23.984-23.992 10.758-23.992 23.984c0 13.227 10.766 23.992 23.992 23.992z" />
<glyph unicode="&#xe928;" glyph-name="gift-voucher" d="M47.158 535.579c0 0 103.485 10.361 107.789-87.579 0 0 1.475-99.389-107.789-101.053v-33.684h33.684c0 0 100.541 8.131 107.789 134.737 0 0 16.054 96.808-107.789 121.263h-33.684v-33.684zM47.158 717.474c0 0 8.307 56.367 67.368 53.895h808.421c0 0 57.573-0.943 67.368-60.632v-168.421c0 0-110.713 7.667-107.789-101.053 0 0-5.524-91.055 107.789-94.316v-175.158c0 0-15.535-56.731-67.368-53.895h-815.158c0 0-61.251 15.643-60.632 67.368v134.737h33.684v-141.474c0 0 22.151-37.511 60.632-26.947h781.474c0 0 37.982 6.454 33.684 53.895v101.053c0 0-107.789 23.687-107.789 134.737 0 0-8.947 117.881 107.789 128v134.737c0 0-4.507 47.064-80.842 33.684h-768c0 0-30.511 3.469-26.947-47.158v-121.263h-33.684v148.211zM276.211 326.737h20.211v-40.421h-20.211v40.421zM276.211 394.105h20.211v-40.421h-20.211v40.421zM276.211 461.474h20.211v-40.421h-20.211v40.421zM276.211 528.842h20.211v-40.421h-20.211v40.421zM276.211 596.211h20.211v-40.421h-20.211v40.421zM741.053 596.211h20.211v-40.421h-20.211v40.421zM741.053 528.842h20.211v-40.421h-20.211v40.421zM741.053 461.474h20.211v-40.421h-20.211v40.421zM741.053 394.105h20.211v-40.421h-20.211v40.421zM741.053 326.737h20.211v-40.421h-20.211v40.421zM612.608 411.331c0 8.32 0.889 13.979 2.668 16.95 0.889 1.489 3.038 2.526 6.447 3.119s10.004 1.482 19.786 2.675c9.782 1.192 17.933 1.785 24.455 1.785v4.002h-153.398v-4.002c6.521 0 14.302-0.451 23.343-1.341s15.043-1.927 18.008-3.119c2.964-1.192 4.891-2.823 5.78-4.911 0.889-2.082 1.334-7.134 1.334-15.158v-53.976c0-20.514-5.598-36.123-16.781-46.828-11.197-10.712-26.799-16.061-46.821-16.061-21.491 0-38.346 12.288-50.567 36.851-12.221 24.569-18.331 59.635-18.331 105.209 0 45.878 6.595 81.388 19.786 106.55 13.191 25.155 31.198 37.733 54.023 37.733 24.010 0 44.908-10.045 62.693-30.12 18.971-21.565 31.569-51.981 37.794-91.264h4.002v125.386l-25.162-46.686c-13.912 18.971-27.978 31.865-42.186 38.683-11.251 5.336-26.051 8.003-44.403 8.003-27.244 0-53.74-12.894-79.495-38.683-30.201-30.235-45.299-68.473-45.299-114.715 0-47.724 13.77-84.184 41.317-109.379 22.804-21.046 50.931-31.569 84.399-31.569 13.029 0 23.175 1.341 30.43 4.008 7.249 2.675 16.512 8.327 27.769 16.957 2.957 2.964 6.063 5.935 9.317 8.913 6.811 5.949 15.252 8.92 25.324 8.92 5.821 0 10.637-2.904 14.464-8.697 3.833-5.8 5.747-14.498 5.747-26.099h3.557v116.864z" />
<glyph unicode="&#xe929;" glyph-name="icon-bond-invoice" d="M683.008 356.454c11.222 8.617 18.384 22.039 18.384 37.134 0 1.347-0.057 2.68-0.169 3.998l0.012-0.172c0.12 1.303 0.188 2.818 0.188 4.348 0 15.835-7.305 29.963-18.73 39.199l-0.095 0.075c-14.292 8.777-31.601 13.976-50.124 13.976-2.469 0-4.916-0.092-7.338-0.274l0.323 0.019h-52.019v-111.411h54.067c2.085-0.163 4.514-0.256 6.965-0.256 17.915 0 34.669 4.968 48.96 13.601l-0.425-0.238zM655.36 270.234h-81.92v-117.35h74.957c1.778-0.135 3.851-0.213 5.942-0.213 17.171 0 33.126 5.205 46.374 14.123l-0.297-0.188c10.736 9.256 17.491 22.874 17.491 38.070 0 1.017-0.030 2.026-0.090 3.028l0.007-0.138c0.107 1.393 0.169 3.018 0.169 4.656 0 15.825-5.716 30.316-15.197 41.518l0.078-0.094c-11.433 10.371-26.68 16.719-43.411 16.719-1.444 0-2.876-0.047-4.296-0.14l0.193 0.010zM644.096 625.357c-179.050 0-324.198-145.149-324.198-324.198s145.149-324.198 324.198-324.198c179.050 0 324.198 145.149 324.198 324.198v0c0 179.050-145.149 324.198-324.198 324.198v0zM780.493 104.346c-33.202-22.219-74.048-35.46-117.985-35.46-4.82 0-9.604 0.159-14.345 0.473l0.644-0.034h-184.32v467.968h160.768c4.019 0.235 8.72 0.368 13.452 0.368 45.103 0 87.368-12.15 123.701-33.356l-1.166 0.629c29.626-19.517 48.91-52.632 48.91-90.252 0-2.112-0.061-4.21-0.181-6.292l0.013 0.288c0.011-0.577 0.017-1.258 0.017-1.941 0-21.202-5.868-41.033-16.069-57.957l0.283 0.506c-11.398-17.971-28.094-31.691-47.872-39.103l-0.666-0.219c25.298-4.31 46.806-17.971 61.261-37.23l0.179-0.249c12.807-17.815 20.482-40.069 20.482-64.115 0-0.212-0.001-0.423-0.002-0.635v0.033c0.111-1.958 0.175-4.248 0.175-6.553 0-39.234-18.387-74.173-47.014-96.67l-0.265-0.201zM270.131 396.8h-35.43c-15.27 0-27.648 12.378-27.648 27.648s12.378 27.648 27.648 27.648h53.248c16.388 38.045 37.013 70.818 61.878 99.851l-0.438-0.523h-112.64c-15.27 0-27.648 12.378-27.648 27.648s12.378 27.648 27.648 27.648h169.574c64.739 51.438 147.661 82.526 237.844 82.526 57.582 0 112.204-12.674 161.229-35.385l-2.375 0.987v190.464h40.96c20.359 0 36.864 16.505 36.864 36.864s-16.505 36.864-36.864 36.864v0h-757.76c-20.359 0-36.864-16.505-36.864-36.864s16.505-36.864 36.864-36.864v0h40.96v-757.76c-0.001-0.025-0.001-0.054-0.001-0.083 0-2.375 1.926-4.301 4.301-4.301 1.31 0 2.484 0.586 3.273 1.51l0.005 0.006 33.792 38.502c2.092 2.188 5.034 3.548 8.294 3.548s6.202-1.36 8.29-3.544l40.964-40.964c2.073-2.063 4.933-3.339 8.090-3.339s6.016 1.276 8.090 3.34v0l40.96 40.96c2.073 2.063 4.933 3.339 8.090 3.339s6.016-1.276 8.090-3.34v0l5.12-5.12c-29.382 52.853-46.679 115.919-46.679 183.026 0 33.566 4.328 66.122 12.455 97.139l-0.592-2.66zM245.76 796.16h450.56c22.622 0 40.96-18.338 40.96-40.96s-18.338-40.96-40.96-40.96v0h-450.56c-6.736 0.042-13.075 1.703-18.659 4.613l0.227-0.108c-5.364 2.064-9.772 5.614-12.842 10.145l-0.061 0.095c-5.903 7.048-9.488 16.213-9.488 26.215 0 22.573 18.26 40.881 40.814 40.96h0.008z" />
<glyph unicode="&#xe92a;" glyph-name="icon-selective-invoice" d="M664.576 625.357c-179.050 0-324.198-145.149-324.198-324.198s145.149-324.198 324.198-324.198c179.050 0 324.198 145.149 324.198 324.198v0c0 179.050-145.149 324.198-324.198 324.198v0zM794.419 97.587c-32.891-21.981-73.343-35.078-116.853-35.078-3.705 0-7.387 0.095-11.045 0.283l0.513-0.021c-1.35-0.028-2.941-0.043-4.536-0.043-49.768 0-95.956 15.33-134.099 41.526l0.805-0.522c-34.466 23.206-56.837 62.078-56.837 106.176 0 3.14 0.113 6.253 0.336 9.335l-0.024-0.413v1.843h105.677c-0.285-2.367-0.448-5.108-0.448-7.888 0-20.383 8.758-38.721 22.717-51.455l0.055-0.049c16.432-11.081 36.678-17.688 58.467-17.688 2.704 0 5.384 0.102 8.037 0.302l-0.353-0.021c1.448-0.095 3.14-0.15 4.845-0.15 16.905 0 32.561 5.348 45.369 14.444l-0.242-0.163c10.152 8.021 16.608 20.332 16.608 34.151 0 0.45-0.007 0.898-0.020 1.344l0.002-0.065c0.050 0.81 0.079 1.757 0.079 2.711 0 14.227-6.363 26.968-16.398 35.533l-0.065 0.054c-16.863 11.956-36.372 21.718-57.299 28.273l-1.478 0.399c-50.005 13.964-93.744 34.49-133.093 61.030l1.611-1.024c-26.219 19.986-42.968 51.234-42.968 86.394 0 2.1 0.060 4.187 0.178 6.257l-0.013-0.287c-0.004 0.355-0.006 0.773-0.006 1.193 0 39.147 20.117 73.596 50.577 93.573l0.425 0.261c33.869 22.82 75.591 36.425 120.491 36.425 3.073 0 6.131-0.064 9.173-0.19l-0.435 0.014c2.098 0.080 4.561 0.126 7.035 0.126 45.53 0 87.448-15.46 120.793-41.417l-0.442 0.331c29.325-22.685 48.023-57.883 48.023-97.447 0-1.742-0.036-3.475-0.108-5.2l0.008 0.247v-1.843h-105.267c0.022 0.605 0.035 1.315 0.035 2.028 0 17.167-7.334 32.621-19.040 43.4l-0.041 0.038c-12.828 10.911-29.586 17.547-47.894 17.547-1.595 0-3.179-0.050-4.749-0.15l0.215 0.011c-1.382 0.083-2.997 0.131-4.623 0.131-17.506 0-33.73-5.491-47.043-14.845l0.261 0.174c-11.295-7.966-18.594-20.944-18.637-35.628v-0.007c-0.001-0.1-0.002-0.219-0.002-0.337 0-13.875 7.499-25.999 18.665-32.539l0.178-0.096c20.085-11.645 43.386-22.119 67.79-30.165l2.661-0.76c45.99-11.912 86.145-32.119 120.74-59.119l-0.727 0.546c25.228-21.974 41.083-54.151 41.083-90.032 0-1.901-0.044-3.791-0.133-5.671l0.010 0.266c0.037-1.072 0.057-2.331 0.057-3.595 0-38.258-19.073-72.061-48.229-92.419l-0.366-0.242zM290.611 396.8h-35.43c-15.27 0-27.648 12.378-27.648 27.648s12.378 27.648 27.648 27.648h53.248c16.388 38.045 37.013 70.818 61.878 99.851l-0.438-0.523h-112.64c-15.27 0-27.648 12.378-27.648 27.648s12.378 27.648 27.648 27.648h169.574c64.739 51.438 147.661 82.526 237.844 82.526 57.582 0 112.204-12.674 161.229-35.385l-2.375 0.987v190.464h40.96c20.359 0 36.864 16.505 36.864 36.864s-16.505 36.864-36.864 36.864v0h-757.76c-20.359 0-36.864-16.505-36.864-36.864s16.505-36.864 36.864-36.864v0h40.96v-757.76c-0.001-0.025-0.001-0.054-0.001-0.083 0-2.375 1.926-4.301 4.301-4.301 1.31 0 2.484 0.586 3.273 1.51l0.005 0.006 33.792 38.502c2.092 2.188 5.034 3.548 8.294 3.548s6.202-1.36 8.29-3.544l40.964-40.964c2.073-2.063 4.933-3.339 8.090-3.339s6.016 1.276 8.090 3.34v0l40.96 40.96c2.073 2.063 4.933 3.339 8.090 3.339s6.016-1.276 8.090-3.34v0l5.12-5.12c-29.382 52.853-46.679 115.919-46.679 183.026 0 33.566 4.328 66.122 12.455 97.139l-0.592-2.66zM266.24 796.16h450.56c22.622 0 40.96-18.338 40.96-40.96s-18.338-40.96-40.96-40.96v0h-450.56c-6.736 0.042-13.075 1.703-18.659 4.613l0.227-0.108c-5.364 2.064-9.772 5.614-12.842 10.145l-0.061 0.095c-5.903 7.048-9.488 16.213-9.488 26.215 0 22.573 18.26 40.881 40.814 40.96h0.008z" />
<glyph unicode="&#xe92b;" glyph-name="icon-proforma-invoice" d="M650.035 449.843h-80.077v-138.854h80.077c1.449-0.107 3.138-0.168 4.842-0.168 18.79 0 35.852 7.399 48.432 19.443l-0.026-0.024c11.329 12.229 18.278 28.656 18.278 46.706 0 0.932-0.019 1.86-0.055 2.783l0.004-0.133c0.036 0.848 0.057 1.843 0.057 2.843 0 18.382-6.939 35.143-18.341 47.807l0.057-0.065c-12.48 12.258-29.603 19.824-48.493 19.824-1.673 0-3.332-0.059-4.976-0.176l0.221 0.013zM644.096 625.357c-179.050 0-324.198-145.149-324.198-324.198s145.149-324.198 324.198-324.198c179.050 0 324.198 145.149 324.198 324.198v0c0 179.050-145.149 324.198-324.198 324.198v0zM780.493 270.234c-32.438-25.739-73.971-41.293-119.137-41.293-3.982 0-7.937 0.121-11.859 0.359l0.539-0.026h-80.077v-158.515h-107.725v461.619h187.597c3.082 0.177 6.688 0.278 10.317 0.278 45.644 0 87.565-15.935 120.505-42.546l-0.364 0.285c29.714-25.651 48.407-63.367 48.407-105.449 0-1.592-0.027-3.179-0.080-4.758l0.006 0.23c0.062-1.542 0.097-3.353 0.097-5.172 0-41.911-18.623-79.473-48.046-104.86l-0.178-0.151zM270.131 396.8h-35.43c-15.27 0-27.648 12.378-27.648 27.648s12.378 27.648 27.648 27.648h53.248c16.388 38.045 37.013 70.818 61.878 99.851l-0.438-0.523h-112.64c-15.27 0-27.648 12.378-27.648 27.648s12.378 27.648 27.648 27.648h169.574c64.739 51.438 147.661 82.526 237.844 82.526 57.582 0 112.204-12.674 161.229-35.385l-2.375 0.987v190.464h40.96c20.359 0 36.864 16.505 36.864 36.864s-16.505 36.864-36.864 36.864v0h-757.76c-20.359 0-36.864-16.505-36.864-36.864s16.505-36.864 36.864-36.864v0h40.96v-757.76c-0.001-0.025-0.001-0.054-0.001-0.083 0-2.375 1.926-4.301 4.301-4.301 1.31 0 2.484 0.586 3.273 1.51l0.005 0.006 33.792 38.502c2.092 2.188 5.034 3.548 8.294 3.548s6.202-1.36 8.29-3.544l40.964-40.964c2.073-2.063 4.933-3.339 8.090-3.339s6.016 1.276 8.090 3.34v0l40.96 40.96c2.073 2.063 4.933 3.339 8.090 3.339s6.016-1.276 8.090-3.34v0l5.12-5.12c-29.382 52.853-46.679 115.919-46.679 183.026 0 33.566 4.328 66.122 12.455 97.139l-0.592-2.66zM245.76 796.16h450.56c22.622 0 40.96-18.338 40.96-40.96s-18.338-40.96-40.96-40.96v0h-450.56c-6.736 0.042-13.075 1.703-18.659 4.613l0.227-0.108c-5.364 2.064-9.772 5.614-12.842 10.145l-0.061 0.095c-5.903 7.048-9.488 16.213-9.488 26.215 0 22.573 18.26 40.881 40.814 40.96h0.008z" />
<glyph unicode="&#xe92c;" glyph-name="timeinout" d="M474.84 406.72c1.534-0.629 3.315-0.994 5.182-0.994 0.344 0 0.686 0.012 1.024 0.037l-0.045-0.003c62 0.3 124.12 0.2 186.18 0.22h8.82v82.020h-122c0 4.32 0 7.22 0 10.12 0 62-0.14 124 0 186 0 7.42-2.38 8.92-10.88 8.34-8.744-0.574-18.957-0.901-29.246-0.901-11.166 0-22.242 0.385-33.215 1.143l1.481-0.082c-4.42 0.28-7.060-0.2-8.62-1.68-0.187-0.182-0.357-0.378-0.511-0.587l-0.009-0.013c-0.95-1.679-1.51-3.688-1.51-5.827 0-0.455 0.025-0.905 0.075-1.347l-0.005 0.054q0.34-134 0-268.1c0.060-4.74 0.9-7.12 3.28-8.4zM842.18 482.44c0-5.060 0.12-9.54 0-14-0.58-19.18-0.12-38.46-2-57.5-5.14-50.94-22.34-97.88-49.86-141-30.522-47.824-71.849-86.23-120.692-112.453l-1.728-0.847c-55.9-29.72-115.54-42.64-178.96-37.6-121.316 10.265-223.043 84.935-271.633 189.332l-0.847 2.028c-18.708 39.742-29.627 86.319-29.627 135.446 0 78.381 27.796 150.27 74.069 206.346l-0.442-0.552c35.209 43.241 80.462 76.978 132.278 97.856l2.202 0.784c43.26 17.36 88.18 24 134.48 23.18 17.22-0.28 17.5 0 19.38 16.68 2.4 21.38 4.3 42.82 6.4 64.18-24.84 3.74-92.7-0.72-124.64-7.78-90.12-20-166.1-64-226-134.24-75.62-88.5-108-191.5-97.54-307.34 6.201-68.761 29.527-131.049 65.638-183.91l-0.858 1.33c65.74-98 156.52-158.64 272.92-180 14.82-2.72 29.86-4.18 44.82-6.18l48.9-0.14c15.28 2 30.66 3.58 45.82 6.3 101.080 18.12 184 67.4 248.8 146.84 50.94 62.64 80 134.8 88.94 215.16 0.64 5.74 1.3 11.48 2 17.24v49.6l-4.32 19.42zM678 856v-82h104.22l0.88-2.14-144.9-143.86 58-58.44 145.8 145.080v-104.5c4.32 0 7.78 0 11.22 0l70.78-0.54v246.4z" />
<glyph unicode="&#xe92d;" glyph-name="covers" horiz-adv-x="1022" d="M596.84 520.12c121.503 0 220 98.497 220 220s-98.497 220-220 220c-121.503 0-220-98.497-220-220v0c0.114-121.457 98.543-219.886 219.989-220h0.011zM596.84 920.020c99.411 0 180-80.589 180-180s-80.589-180-180-180c-99.411 0-180 80.589-180 180v0c0.102 99.366 80.632 179.889 179.991 179.98h0.009zM443.3 293.76c-3.621-3.619-5.86-8.62-5.86-14.144 0-11.046 8.954-20 20-20s20 8.954 20 20c0 5.524-2.239 10.525-5.86 14.144v0c-3.619 3.618-8.618 5.856-14.14 5.856s-10.521-2.238-14.14-5.856v0zM996.34 516.58c-13.839 11.686-31.877 18.788-51.574 18.788-24.17 0-45.842-10.695-60.543-27.61l-0.083-0.098-118-121.26c-14.794 18.138-37.114 29.652-62.125 29.74h-222.995c-29.412 12.647-63.648 20.001-99.6 20.001-0.183 0-0.365 0-0.548-0.001h0.028c-96.28 0-180.36-44.46-225.46-127.84-3.333 0.66-7.165 1.038-11.086 1.038-16.554 0-31.535-6.735-42.352-17.615l-0.003-0.003-95.16-95.4c-3.594-3.615-5.816-8.598-5.816-14.1s2.222-10.485 5.817-14.101l224.459-226.119c3.624-3.648 8.643-5.906 14.19-5.906 5.467 0 10.422 2.194 14.032 5.749l-0.003-0.002 96.94 95.5c10.801 10.911 17.474 25.926 17.474 42.499 0 6.981-1.184 13.686-3.362 19.925l0.129-0.424 20.86 20.1c10.72 10.405 25.364 16.82 41.506 16.82 0.047 0 0.094 0 0.142 0h265.793c0.114 0 0.249 0 0.383 0 48.718 0 92.891 19.461 125.169 51.033l-0.033-0.032c1.4 1.36-10.56-12.72 181.34 216.62 11.725 13.828 18.854 31.875 18.854 51.587 0 24.453-10.971 46.343-28.259 61.018l-0.115 0.095zM328.34 65.64l-82.64-81.42-196.46 198 81.060 81.28c3.62 3.624 8.623 5.866 14.15 5.866 3.932 0 7.599-1.135 10.691-3.095l-0.082 0.048c3.46-2.1-6.48 6.94 173.18-172.46 3.618-3.619 5.856-8.618 5.856-14.14 0-5.492-2.214-10.467-5.797-14.081l0.001 0.001zM975.28 429.64l-179.34-214.4c-24.998-24.12-59.071-38.98-96.614-38.98-0.108 0-0.215 0-0.323 0h-265.823c-0.073 0-0.159 0-0.245 0-26.89 0-51.287-10.678-69.181-28.025l-16.974-16.375-156.64 156.56c36.6 68.68 105.3 107.74 190.74 107.74 0.139 0 0.304 0.001 0.469 0.001 31.666 0 61.758-6.744 88.916-18.873l-1.386 0.553c2.355-1.058 5.105-1.676 7.999-1.68h227.121c22.091 0 40-17.909 40-40s-17.909-40-40-40v0h-163.14c-11.046 0-20-8.954-20-20s8.954-20 20-20v0h163.14c0.036 0 0.079 0 0.121 0 44.105 0 79.86 35.755 79.86 79.86 0 3.724-0.255 7.388-0.748 10.976l0.047-0.416c114.14 117.32 130.22 133.8 130.92 134.62 7.39 8.893 18.453 14.513 30.829 14.513 22.091 0 40-17.909 40-40 0-10.041-3.7-19.217-9.81-26.241l0.041 0.049zM503.38 639.14h191.66c16.455 0.019 29.787 13.362 29.787 29.82 0 2.189-0.236 4.322-0.683 6.377l0.036-0.197c-1.065 4.359-4.937 7.543-9.552 7.543-5.423 0-9.82-4.397-9.82-9.82 0-0.609 0.055-1.205 0.161-1.783l-0.009 0.060c0.152-0.662 0.239-1.422 0.239-2.202 0-2.429-0.844-4.661-2.255-6.418l0.016 0.020c-1.848-2.289-4.654-3.74-7.798-3.74-0.015 0-0.029 0-0.044 0h-191.738c-0.012 0-0.027 0-0.042 0-3.145 0-5.95 1.452-7.783 3.721l-0.015 0.019c-1.395 1.737-2.239 3.969-2.239 6.398 0 0.78 0.087 1.54 0.252 2.271l-0.013-0.069c10.56 48.473 52.464 84.463 103.011 85.857l0.149 0.003h5.22c36.281-0.915 68.014-19.586 86.936-47.617l0.244-0.383c1.752-2.855 4.856-4.73 8.398-4.73 5.423 0 9.82 4.397 9.82 9.82 0 2.195-0.72 4.221-1.936 5.856l0.019-0.026c-15.786 23.368-38.534 40.98-65.24 49.996l-0.9 0.264c16.331 12.299 26.78 31.652 26.78 53.445 0 36.848-29.872 66.72-66.72 66.72s-66.72-29.872-66.72-66.72c0-21.793 10.449-41.146 26.61-53.322l0.17-0.123c-43.076-14.479-75.391-50.13-84.889-94.261l-0.151-0.839c-0.412-1.858-0.647-3.991-0.647-6.18 0-16.458 13.332-29.801 29.786-29.82h0.002zM552.1 823.62c0 26.013 21.087 47.1 47.1 47.1s47.1-21.087 47.1-47.1c0-25.175-19.752-45.738-44.604-47.035l-0.116-0.005h-4.76c-24.955 1.333-44.689 21.877-44.72 47.037v0.003z" />
<glyph unicode="&#xe92e;" glyph-name="fixed" horiz-adv-x="1022" d="M596.84 520.12c121.503 0 220 98.497 220 220s-98.497 220-220 220c-121.503 0-220-98.497-220-220v0c0.114-121.457 98.543-219.886 219.989-220h0.011zM596.84 920.020c99.411 0 180-80.589 180-180s-80.589-180-180-180c-99.411 0-180 80.589-180 180v0c0.102 99.366 80.632 179.889 179.991 179.98h0.009zM443.3 293.76c-3.621-3.619-5.86-8.62-5.86-14.144 0-11.046 8.954-20 20-20s20 8.954 20 20c0 5.524-2.239 10.525-5.86 14.144v0c-3.619 3.618-8.618 5.856-14.14 5.856s-10.521-2.238-14.14-5.856v0zM996.34 516.58c-13.839 11.686-31.877 18.788-51.574 18.788-24.17 0-45.842-10.695-60.543-27.61l-0.083-0.098-118-121.26c-14.794 18.138-37.114 29.652-62.125 29.74h-222.995c-29.412 12.647-63.648 20.001-99.6 20.001-0.183 0-0.365 0-0.548-0.001h0.028c-96.28 0-180.36-44.46-225.46-127.84-3.333 0.66-7.165 1.038-11.086 1.038-16.554 0-31.535-6.735-42.352-17.615l-0.003-0.003-95.16-95.4c-3.594-3.615-5.816-8.598-5.816-14.1s2.222-10.485 5.817-14.101l224.459-226.119c3.624-3.648 8.643-5.906 14.19-5.906 5.467 0 10.422 2.194 14.032 5.749l-0.003-0.002 96.94 95.5c10.801 10.911 17.474 25.926 17.474 42.499 0 6.981-1.184 13.686-3.362 19.925l0.129-0.424 20.86 20.1c10.72 10.405 25.364 16.82 41.506 16.82 0.047 0 0.094 0 0.142 0h265.793c0.114 0 0.249 0 0.383 0 48.718 0 92.891 19.461 125.169 51.033l-0.033-0.032c1.4 1.36-10.56-12.72 181.34 216.62 11.725 13.828 18.854 31.875 18.854 51.587 0 24.453-10.971 46.343-28.259 61.018l-0.115 0.095zM328.34 65.64l-82.64-81.42-196.46 198 81.060 81.28c3.62 3.624 8.623 5.866 14.15 5.866 3.932 0 7.599-1.135 10.691-3.095l-0.082 0.048c3.46-2.1-6.48 6.94 173.18-172.46 3.618-3.619 5.856-8.618 5.856-14.14 0-5.492-2.214-10.467-5.797-14.081l0.001 0.001zM975.28 429.64l-179.34-214.4c-24.998-24.12-59.071-38.98-96.614-38.98-0.108 0-0.215 0-0.323 0h-265.823c-0.073 0-0.159 0-0.245 0-26.89 0-51.287-10.678-69.181-28.025l-16.974-16.375-156.64 156.56c36.6 68.68 105.3 107.74 190.76 107.74 0.139 0 0.304 0.001 0.469 0.001 31.666 0 61.758-6.744 88.916-18.873l-1.386 0.553c2.355-1.058 5.105-1.676 7.999-1.68h227.101c22.091 0 40-17.909 40-40s-17.909-40-40-40v0h-163.14c-11.046 0-20-8.954-20-20s8.954-20 20-20v0h163.14c0.036 0 0.079 0 0.121 0 44.105 0 79.86 35.755 79.86 79.86 0 3.724-0.255 7.388-0.748 10.976l0.047-0.416c114.14 117.32 130.22 133.8 130.92 134.62 7.39 8.893 18.453 14.513 30.829 14.513 22.091 0 40-17.909 40-40 0-10.041-3.7-19.217-9.81-26.241l0.041 0.049zM728 665.76v150.36c0 2.441-1.979 4.42-4.42 4.42v0h-256.5c-2.441 0-4.42-1.979-4.42-4.42v0-150.36c0-2.441 1.979-4.42 4.42-4.42v0h256.5c2.441 0 4.42 1.979 4.42 4.42v0zM719.16 670.18h-247.64v141.5h247.64zM484.78 705.56c0.225 0.008 0.488 0.013 0.753 0.013 11.808 0 21.38-9.572 21.38-21.38 0-0.265-0.005-0.529-0.014-0.791l0.001 0.038c0-2.441 1.979-4.42 4.42-4.42v0h168c2.441 0 4.42 1.979 4.42 4.42v0c-0.008 0.225-0.013 0.488-0.013 0.753 0 11.808 9.572 21.38 21.38 21.38 0.265 0 0.529-0.005 0.791-0.014l-0.038 0.001c2.441 0 4.42 1.979 4.42 4.42v0 62c0 2.441-1.979 4.42-4.42 4.42v0c-0.225-0.008-0.488-0.013-0.753-0.013-11.808 0-21.38 9.572-21.38 21.38 0 0.265 0.005 0.529 0.014 0.791l-0.001-0.038c0 2.441-1.979 4.42-4.42 4.42v0h-168c-2.441 0-4.42-1.979-4.42-4.42v0c0.008-0.225 0.013-0.488 0.013-0.753 0-11.808-9.572-21.38-21.38-21.38-0.265 0-0.529 0.005-0.791 0.014l0.038-0.001c-2.441 0-4.42-1.979-4.42-4.42v0-62c0-2.441 1.979-4.42 4.42-4.42v0zM489.2 767.76c13.769 1.678 24.572 12.474 26.245 26.095l0.015 0.145h159.78c1.68-13.774 12.486-24.58 26.115-26.246l0.145-0.014v-53.64c-13.774-1.68-24.58-12.486-26.246-26.115l-0.014-0.145h-159.78c-1.68 13.774-12.486 24.58-26.115 26.246l-0.145 0.014zM595.34 696.72c24.422 0 44.22 19.798 44.22 44.22s-19.798 44.22-44.22 44.22c-24.422 0-44.22-19.798-44.22-44.22v0c0.034-24.408 19.812-44.186 44.217-44.22h0.003zM595.34 776.32c0.012 0 0.026 0 0.040 0 19.54 0 35.38-15.84 35.38-35.38s-15.84-35.38-35.38-35.38c-19.54 0-35.38 15.84-35.38 35.38v0c0.023 19.517 15.827 35.335 35.336 35.38h0.004z" />
<glyph unicode="&#xe92f;" glyph-name="percentage1" horiz-adv-x="1022" d="M596.84 520.12c121.503 0 220 98.497 220 220s-98.497 220-220 220c-121.503 0-220-98.497-220-220v0c0.114-121.457 98.543-219.886 219.989-220h0.011zM596.84 920.020c99.411 0 180-80.589 180-180s-80.589-180-180-180c-99.411 0-180 80.589-180 180v0c0.102 99.366 80.632 179.889 179.991 179.98h0.009zM443.3 293.76c-3.621-3.619-5.86-8.62-5.86-14.144 0-11.046 8.954-20 20-20s20 8.954 20 20c0 5.524-2.239 10.525-5.86 14.144v0c-3.619 3.618-8.618 5.856-14.14 5.856s-10.521-2.238-14.14-5.856v0zM996.34 516.58c-13.839 11.686-31.877 18.788-51.574 18.788-24.17 0-45.842-10.695-60.543-27.61l-0.083-0.098-118-121.26c-14.794 18.138-37.114 29.652-62.125 29.74h-222.995c-29.412 12.647-63.648 20.001-99.6 20.001-0.183 0-0.365 0-0.548-0.001h0.028c-96.28 0-180.36-44.46-225.46-127.84-3.333 0.66-7.165 1.038-11.086 1.038-16.554 0-31.535-6.735-42.352-17.615l-0.003-0.003-95.16-95.4c-3.594-3.615-5.816-8.598-5.816-14.1s2.222-10.485 5.817-14.101l224.459-226.119c3.624-3.648 8.643-5.906 14.19-5.906 5.467 0 10.422 2.194 14.032 5.749l-0.003-0.002 96.94 95.5c10.801 10.911 17.474 25.926 17.474 42.499 0 6.981-1.184 13.686-3.362 19.925l0.129-0.424 20.86 20.1c10.72 10.405 25.364 16.82 41.506 16.82 0.047 0 0.094 0 0.142 0h265.793c0.114 0 0.249 0 0.383 0 48.718 0 92.891 19.461 125.169 51.033l-0.033-0.032c1.4 1.36-10.56-12.72 181.34 216.62 11.725 13.828 18.854 31.875 18.854 51.587 0 24.453-10.971 46.343-28.259 61.018l-0.115 0.095zM328.34 65.64l-82.64-81.42-196.46 198 81.060 81.28c3.62 3.624 8.623 5.866 14.15 5.866 3.932 0 7.599-1.135 10.691-3.095l-0.082 0.048c3.46-2.1-6.48 6.94 173.18-172.46 3.618-3.619 5.856-8.618 5.856-14.14 0-5.492-2.214-10.467-5.797-14.081l0.001 0.001zM975.28 429.64l-179.34-214.4c-24.998-24.12-59.071-38.98-96.614-38.98-0.108 0-0.215 0-0.323 0h-265.823c-0.073 0-0.159 0-0.245 0-26.89 0-51.287-10.678-69.181-28.025l-16.974-16.375-156.64 156.56c36.6 68.68 105.3 107.74 190.74 107.74 0.139 0 0.304 0.001 0.469 0.001 31.666 0 61.758-6.744 88.916-18.873l-1.386 0.553c2.355-1.058 5.105-1.676 7.999-1.68h227.121c22.091 0 40-17.909 40-40s-17.909-40-40-40v0h-163.14c-11.046 0-20-8.954-20-20s8.954-20 20-20v0h163.14c0.036 0 0.079 0 0.121 0 44.105 0 79.86 35.755 79.86 79.86 0 3.724-0.255 7.388-0.748 10.976l0.047-0.416c114.14 117.32 130.22 133.8 130.92 134.62 7.39 8.893 18.453 14.513 30.829 14.513 22.091 0 40-17.909 40-40 0-10.041-3.7-19.217-9.81-26.241l0.041 0.049zM486.825 651.545l202.289 202.289 23.844-23.844-202.289-202.289-23.844 23.844zM667.32 724c-27.935 0-50.58-22.645-50.58-50.58s22.645-50.58 50.58-50.58c27.935 0 50.58 22.645 50.58 50.58v0c0 0.006 0 0.013 0 0.020 0 27.924-22.636 50.56-50.56 50.56-0.007 0-0.014 0-0.021 0h0.001zM667.32 656.58c-9.312 0-16.86 7.548-16.86 16.86s7.548 16.86 16.86 16.86c9.312 0 16.86-7.548 16.86-16.86v0c0-0.030 0-0.065 0-0.1 0-9.312-7.548-16.86-16.86-16.86 0 0 0 0 0 0v0zM532.46 757.62c27.935 0 50.58 22.645 50.58 50.58s-22.645 50.58-50.58 50.58c-27.935 0-50.58-22.645-50.58-50.58v0c0-27.935 22.645-50.58 50.58-50.58v0zM532.46 825.040c9.312 0 16.86-7.548 16.86-16.86s-7.548-16.86-16.86-16.86c-9.312 0-16.86 7.548-16.86 16.86v0c0 0.006 0 0.013 0 0.020 0 9.312 7.548 16.86 16.86 16.86v0z" />
<glyph unicode="&#xe930;" glyph-name="commission" horiz-adv-x="1022" d="M443.3 293.76c-3.621-3.619-5.86-8.62-5.86-14.144 0-11.046 8.954-20 20-20s20 8.954 20 20c0 5.524-2.239 10.525-5.86 14.144v0c-3.619 3.618-8.618 5.856-14.14 5.856s-10.521-2.238-14.14-5.856v0zM996.34 516.58c-13.839 11.686-31.877 18.788-51.574 18.788-24.17 0-45.842-10.695-60.543-27.61l-0.083-0.098-118-121.26c-14.794 18.138-37.114 29.652-62.125 29.74h-222.995c-29.412 12.647-63.648 20.001-99.6 20.001-0.183 0-0.365 0-0.548-0.001h0.028c-96.28 0-180.36-44.46-225.46-127.84-3.333 0.66-7.165 1.038-11.086 1.038-16.554 0-31.535-6.735-42.352-17.615l-0.003-0.003-95.16-95.4c-3.594-3.615-5.816-8.598-5.816-14.1s2.222-10.485 5.817-14.101l224.459-226.119c3.624-3.648 8.643-5.906 14.19-5.906 5.467 0 10.422 2.194 14.032 5.749l-0.003-0.002 96.94 95.5c10.801 10.911 17.474 25.926 17.474 42.499 0 6.981-1.184 13.686-3.362 19.925l0.129-0.424 20.86 20.1c10.72 10.405 25.364 16.82 41.506 16.82 0.047 0 0.094 0 0.142 0h265.793c0.114 0 0.249 0 0.383 0 48.718 0 92.891 19.461 125.169 51.033l-0.033-0.032c1.4 1.36-10.56-12.72 181.34 216.62 11.725 13.828 18.854 31.875 18.854 51.587 0 24.453-10.971 46.343-28.259 61.018l-0.115 0.095zM328.34 65.64l-82.64-81.42-196.46 198 81.060 81.28c3.62 3.624 8.623 5.866 14.15 5.866 3.932 0 7.599-1.135 10.691-3.095l-0.082 0.048c3.46-2.1-6.48 6.94 173.18-172.46 3.618-3.619 5.856-8.618 5.856-14.14 0-5.492-2.214-10.467-5.797-14.081l0.001 0.001zM975.28 429.64l-179.34-214.4c-24.998-24.12-59.071-38.98-96.614-38.98-0.108 0-0.215 0-0.323 0h-265.823c-0.073 0-0.159 0-0.245 0-26.89 0-51.287-10.678-69.181-28.025l-16.974-16.375-156.64 156.56c36.6 68.68 105.3 107.74 190.76 107.74 0.139 0 0.304 0.001 0.469 0.001 31.666 0 61.758-6.744 88.916-18.873l-1.386 0.553c2.355-1.058 5.105-1.676 7.999-1.68h227.101c22.091 0 40-17.909 40-40s-17.909-40-40-40v0h-163.14c-11.046 0-20-8.954-20-20s8.954-20 20-20v0h163.14c0.036 0 0.079 0 0.121 0 44.105 0 79.86 35.755 79.86 79.86 0 3.724-0.255 7.388-0.748 10.976l0.047-0.416c114.14 117.32 130.22 133.8 130.92 134.62 7.39 8.893 18.453 14.513 30.829 14.513 22.091 0 40-17.909 40-40 0-10.041-3.7-19.217-9.81-26.241l0.041 0.049zM264 484c0.006 0 0.013 0 0.020 0 77.905 0 141.060 63.155 141.060 141.060s-63.155 141.060-141.060 141.060c-77.905 0-141.060-63.155-141.060-141.060v0c0.091-77.862 63.18-140.958 141.030-141.060h0.010zM264 740.46c63.734 0 115.4-51.666 115.4-115.4s-51.666-115.4-115.4-115.4c-63.734 0-115.4 51.666-115.4 115.4v0c0.068 63.71 51.691 115.34 115.392 115.42h0.008zM348.14 577.44v96.42c0 1.568-1.272 2.84-2.84 2.84v0h-164.48c-1.56-0.011-2.82-1.278-2.82-2.84 0 0 0 0 0 0v0-96.42c0-1.568 1.272-2.84 2.84-2.84v0h164.48c1.56 0.011 2.82 1.278 2.82 2.84 0 0 0 0 0 0v0zM342.46 580.28h-158.8v90.74h158.82zM192.16 602.96c0.14 0.005 0.303 0.008 0.468 0.008 7.577 0 13.72-6.143 13.72-13.72 0-0.165-0.003-0.328-0.009-0.492l0.001 0.024c0-1.568 1.272-2.84 2.84-2.84v0h107.76c1.568 0 2.84 1.272 2.84 2.84v0c-0.005 0.14-0.008 0.303-0.008 0.468 0 7.577 6.143 13.72 13.72 13.72 0.165 0 0.328-0.003 0.492-0.009l-0.024 0.001c1.568 0 2.84 1.272 2.84 2.84v0 39.7c0 1.568-1.272 2.84-2.84 2.84v0c-0.14-0.005-0.303-0.008-0.468-0.008-7.577 0-13.72 6.143-13.72 13.72 0 0.165 0.003 0.328 0.009 0.492l-0.001-0.024c0 1.568-1.272 2.84-2.84 2.84v0h-107.76c-1.568 0-2.84-1.272-2.84-2.84v0c0.005-0.14 0.008-0.303 0.008-0.468 0-7.577-6.143-13.72-13.72-13.72-0.165 0-0.328 0.003-0.492 0.009l0.024-0.001c-1.568 0-2.84-1.272-2.84-2.84v0-39.7c0-1.568 1.272-2.84 2.84-2.84v0zM195 642.84c8.833 1.078 15.762 8.007 16.831 16.747l0.009 0.093h102.46c1.078-8.833 8.007-15.762 16.747-16.831l0.093-0.009v-34.4c-8.833-1.078-15.762-8.007-16.831-16.747l-0.009-0.093h-102.46c-1.078 8.833-8.007 15.762-16.747 16.831l-0.093 0.009zM263.060 597.28c15.663 0 28.36 12.697 28.36 28.36s-12.697 28.36-28.36 28.36c-15.663 0-28.36-12.697-28.36-28.36v0c0.023-15.654 12.706-28.337 28.358-28.36h0.002zM263.060 648.32c12.526 0 22.68-10.154 22.68-22.68s-10.154-22.68-22.68-22.68c-12.526 0-22.68 10.154-22.68 22.68v0c0.011 12.525 10.156 22.677 22.678 22.7h0.002zM504.16 672.26c0.006 0 0.013 0 0.020 0 77.905 0 141.060 63.155 141.060 141.060s-63.155 141.060-141.060 141.060c-77.905 0-141.060-63.155-141.060-141.060v0c0.091-77.862 63.18-140.958 141.030-141.060h0.010zM504.16 928.72c63.734 0 115.4-51.666 115.4-115.4s-51.666-115.4-115.4-115.4c-63.734 0-115.4 51.666-115.4 115.4v0c0.091 63.693 51.705 115.3 115.392 115.38h0.008zM433.607 756.535l129.726 129.726 15.288-15.288-129.726-129.726-15.288 15.288zM549.36 802.94c-17.916 0-32.44-14.524-32.44-32.44s14.524-32.44 32.44-32.44c17.916 0 32.44 14.524 32.44 32.44 0 0.007 0 0.014 0 0.021v-0.001c0 17.905-14.515 32.42-32.42 32.42-0.007 0-0.014 0-0.021 0h0.001zM549.36 759.7c-5.976 0-10.82 4.844-10.82 10.82s4.844 10.82 10.82 10.82c5.976 0 10.82-4.844 10.82-10.82v0c0-0.006 0-0.013 0-0.020 0-5.965-4.835-10.8-10.8-10.8-0.007 0-0.014 0-0.021 0h0.001zM462.88 824.56c17.916 0 32.44 14.524 32.44 32.44s-14.524 32.44-32.44 32.44c-17.916 0-32.44-14.524-32.44-32.44v0c0-17.916 14.524-32.44 32.44-32.44v0zM462.88 867.8c5.95-0.034 10.76-4.865 10.76-10.82 0-5.976-4.844-10.82-10.82-10.82s-10.82 4.844-10.82 10.82c0 0.007 0 0.014 0 0.021v-0.001c0 0 0 0 0 0 0 5.976 4.844 10.82 10.82 10.82 0.021 0 0.042 0 0.063 0h-0.003zM746.12 484c0.006 0 0.013 0 0.020 0 77.905 0 141.060 63.155 141.060 141.060s-63.155 141.060-141.060 141.060c-77.905 0-141.060-63.155-141.060-141.060v0c0.091-77.862 63.18-140.958 141.030-141.060h0.010zM746.12 740.46c63.734 0 115.4-51.666 115.4-115.4s-51.666-115.4-115.4-115.4c-63.734 0-115.4 51.666-115.4 115.4v0c0.068 63.71 51.691 115.34 115.392 115.42h0.008zM686.18 560.36h122.92c10.547 0.017 19.090 8.571 19.090 19.12 0 1.395-0.149 2.756-0.433 4.066l0.023-0.126c-0.733 2.727-3.183 4.701-6.094 4.701-3.479 0-6.3-2.821-6.3-6.3 0-0.339 0.027-0.672 0.078-0.997l-0.005 0.036c0.090-0.409 0.142-0.878 0.142-1.36 0-1.583-0.559-3.036-1.491-4.172l0.009 0.012c-1.183-1.468-2.981-2.4-4.996-2.4-0.015 0-0.031 0-0.046 0h-122.898c-0.013 0-0.028 0-0.044 0-2.016 0-3.813 0.932-4.987 2.388l-0.010 0.012c-0.923 1.124-1.482 2.577-1.482 4.16 0 0.482 0.052 0.951 0.15 1.403l-0.008-0.043c6.748 31.131 33.651 54.252 66.105 55.138l0.095 0.002h3.34c23.293-0.537 43.682-12.496 55.844-30.476l0.156-0.244c1.123-1.837 3.117-3.045 5.394-3.045 3.479 0 6.3 2.821 6.3 6.3 0 1.41-0.463 2.712-1.246 3.762l0.012-0.017c-10.126 14.981-24.716 26.272-41.843 32.051l-0.577 0.169c10.483 7.889 17.19 20.307 17.19 34.292 0 23.638-19.162 42.8-42.8 42.8s-42.8-19.162-42.8-42.8c0-13.985 6.707-26.403 17.081-34.214l0.109-0.079c-27.624-9.284-48.348-32.144-54.443-60.442l-0.097-0.538c-0.261-1.184-0.41-2.545-0.41-3.94 0-10.549 8.543-19.103 19.089-19.12h0.002zM717.42 678.68c0 0 0 0 0 0.001 0 16.679 13.521 30.2 30.2 30.2s30.2-13.521 30.2-30.2c0-16.137-12.657-29.318-28.585-30.158l-0.075-0.003h-3.060c-16.002 0.852-28.658 14.025-28.68 30.158v0.002z" />
</font>
</defs>
</svg>
